{"glyphs":{"0":{"ha":1274,"x_min":34,"x_max":1240,"o":"m 637 1027 q 1063 871 886 1027 q 1240 492 1240 714 q 1063 114 1240 271 q 637 -43 886 -43 q 210 114 387 -43 q 34 492 34 271 q 210 871 34 714 q 637 1027 387 1027 m 633 708 q 465 645 534 708 q 396 494 396 583 q 465 343 396 406 q 633 280 534 280 q 800 343 731 280 q 869 494 869 406 q 800 645 869 583 q 633 708 731 708 z "},"1":{"ha":614,"x_min":34,"x_max":580,"o":"m 351 1044 l 382 1044 q 580 807 580 1044 q 500 16 532 16 q 390 -47 443 -47 l 351 -47 q 216 87 216 -20 q 264 680 240 490 q 256 688 256 680 l 184 680 q 34 839 56 680 q 351 1044 34 1006 z "},"2":{"ha":1088,"x_min":34,"x_max":1055,"o":"m 643 1163 q 960 918 867 1163 q 975 791 975 844 q 738 309 975 544 q 730 285 730 294 q 960 254 909 267 q 1055 142 1055 212 l 1055 79 q 904 -47 1055 -12 q 208 0 208 -26 q 129 142 129 75 l 129 151 q 248 309 129 244 q 659 775 659 604 l 659 823 q 635 846 659 834 l 604 846 q 295 665 490 838 q 208 633 254 633 l 161 633 q 34 783 66 633 q 232 1013 34 886 q 643 1163 408 1163 z "},"3":{"ha":1168,"x_min":34,"x_max":1134,"o":"m 675 1155 q 999 918 999 1155 q 912 696 999 812 l 912 688 q 1134 396 1134 574 l 1134 356 q 770 -24 1134 132 q 485 -79 638 -79 q 42 135 216 -79 l 34 182 l 34 206 q 193 349 34 327 q 414 245 243 349 q 493 230 481 230 q 802 356 726 272 l 802 380 q 707 404 774 404 q 461 388 471 388 q 311 522 311 432 l 311 570 q 493 775 311 661 l 524 807 l 517 823 q 256 751 281 751 q 98 902 98 777 l 98 918 q 342 1100 98 1053 q 675 1155 505 1155 z "},"4":{"ha":1120,"x_min":34,"x_max":1086,"o":"m 604 1131 q 770 989 770 1115 l 770 958 q 572 680 770 884 q 493 578 572 668 q 485 554 485 562 l 500 546 l 572 546 q 619 673 593 546 q 762 751 673 751 q 912 585 901 751 q 1015 538 912 554 q 1086 420 1086 475 l 1086 380 q 920 237 1086 271 l 912 222 l 912 151 q 762 -16 899 -16 l 754 -16 q 604 151 617 -16 l 604 214 l 588 237 q 295 222 357 230 q 34 396 34 242 l 34 451 q 342 886 34 543 q 588 1131 526 1131 l 604 1131 z "},"5":{"ha":985,"x_min":34,"x_max":951,"o":"m 319 1171 q 762 1163 707 1163 q 873 1013 873 1108 q 683 846 873 876 q 366 863 445 863 l 351 839 l 351 799 q 374 775 351 788 l 382 775 q 920 570 817 775 q 951 467 951 507 l 951 388 q 659 56 951 224 q 342 0 505 0 q 105 111 151 0 l 98 159 l 98 174 q 232 317 127 317 l 382 317 q 619 412 532 317 l 619 420 q 485 459 619 454 l 390 459 q 66 570 126 459 q 34 736 34 649 q 121 1107 34 1028 q 319 1171 205 1171 z "},"6":{"ha":954,"x_min":34,"x_max":920,"o":"m 675 1139 l 690 1139 q 904 1021 862 1139 q 912 981 912 1008 l 912 958 q 778 815 881 815 q 651 823 766 815 q 509 736 536 780 q 675 688 509 720 q 920 356 920 576 l 920 325 q 675 8 920 124 q 572 -7 604 -7 l 485 -7 q 50 293 159 -7 q 34 435 34 372 q 414 1060 34 823 q 675 1139 543 1139 m 358 388 q 524 301 358 301 q 604 356 604 301 q 453 412 561 412 l 446 412 q 358 388 358 412 z "},"7":{"ha":1065,"x_min":34,"x_max":1031,"o":"m 184 1131 q 406 1100 312 1100 l 477 1100 q 873 1131 574 1100 q 1031 949 999 1131 q 825 515 1031 893 q 485 -7 585 -7 l 446 -7 q 295 142 331 -7 l 295 159 q 485 538 295 190 q 595 783 595 768 q 588 791 588 783 q 461 783 576 791 q 74 870 135 783 q 34 965 34 914 l 34 981 q 184 1131 63 1131 z "},"8":{"ha":994,"x_min":34,"x_max":960,"o":"m 556 1202 q 951 965 867 1202 q 960 926 960 952 l 960 863 q 762 570 960 743 l 762 562 q 888 254 888 401 q 683 -7 888 94 q 461 -55 634 -39 q 81 190 194 -55 q 58 317 66 230 q 153 570 67 442 q 34 823 34 705 l 34 831 q 446 1195 34 1117 q 556 1202 513 1202 m 463 893 q 386 850 414 881 q 363 799 363 825 q 366 784 363 791 q 414 735 374 751 q 462 726 436 726 q 501 731 481 726 q 578 774 549 743 q 600 825 600 799 q 597 840 600 832 q 551 889 590 873 q 502 898 528 898 q 463 893 483 898 m 465 414 q 392 386 422 414 q 362 317 362 357 q 392 250 362 278 q 465 222 422 222 q 537 250 507 222 q 567 317 567 278 q 537 386 567 357 q 465 414 507 414 z "},"9":{"ha":930,"x_min":34,"x_max":897,"o":"m 604 1155 q 778 1084 716 1155 q 897 941 897 1029 l 897 198 q 793 -16 897 21 q 754 -24 781 -24 l 699 -24 q 580 103 617 -24 l 580 111 q 588 309 588 279 q 564 317 572 317 q 429 293 467 293 l 358 293 q 42 538 151 293 q 34 625 34 592 l 34 665 q 208 1013 34 854 q 604 1155 373 1155 m 342 641 q 398 602 353 602 q 572 823 572 643 q 556 839 572 839 q 366 704 366 786 q 342 641 351 704 z "},"\u0000":{"ha":0,"x_min":0,"x_max":0,"o":""}," ":{"ha":677,"x_min":0,"x_max":0,"o":""}," ":{"ha":677,"x_min":0,"x_max":0,"o":""},"!":{"ha":578,"x_min":54,"x_max":545,"o":"m 241 488 q 140 696 140 508 q 170 946 140 797 q 237 1143 181 1003 q 402 1277 290 1277 l 412 1277 q 545 1139 545 1227 q 542 1114 545 1127 q 486 916 540 1106 l 468 823 q 450 608 456 760 l 446 585 q 328 475 436 475 q 303 476 316 475 l 241 488 m 265 84 q 155 18 205 18 q 109 28 144 18 q 60 108 75 38 q 59 120 59 115 q 183 190 59 178 q 54 300 54 230 q 56 343 54 304 q 139 406 58 382 q 158 408 149 408 q 276 267 227 408 q 397 404 336 404 q 421 398 409 404 q 490 302 490 367 q 488 260 490 298 q 353 197 486 223 q 485 119 478 179 q 486 107 486 113 q 435 22 486 56 q 403 12 419 12 q 304 84 358 12 q 306 41 306 60 q 276 -43 306 -43 q 269 -42 273 -43 q 237 -18 237 -33 q 244 -3 237 -11 q 265 81 265 23 l 265 84 z "},"\"":{"ha":732,"x_min":34,"x_max":699,"o":"m 524 1179 l 556 1179 q 699 1036 699 1148 l 690 941 l 690 783 q 588 625 690 667 l 532 617 q 382 815 382 617 l 374 870 q 437 1147 374 1105 q 524 1179 485 1179 m 176 1155 l 216 1155 q 351 1005 326 1155 q 342 926 351 967 q 351 815 351 876 l 351 791 q 224 649 351 688 l 169 649 q 34 870 46 649 l 34 949 q 176 1155 47 1155 z "},"#":{"ha":1326,"x_min":34,"x_max":1292,"o":"m 888 1147 l 944 1147 q 1070 1021 1025 1147 l 1070 941 l 1063 902 q 1213 863 1078 886 q 1292 728 1292 787 q 1165 570 1263 570 l 1046 570 q 1031 554 1031 568 l 1031 467 q 1141 404 1031 454 q 1205 269 1205 349 q 1110 135 1205 187 q 1070 47 1093 135 q 944 -24 1013 -24 l 928 -24 q 762 159 801 -24 q 651 174 702 174 l 604 174 q 580 151 592 174 l 580 95 q 461 -39 580 7 l 414 -39 q 264 159 281 -39 q 50 245 104 159 l 42 301 l 42 332 q 216 475 42 461 q 256 498 256 475 l 256 562 q 232 585 256 573 l 169 585 q 34 704 34 616 l 34 768 q 264 918 34 878 q 295 1060 287 935 q 406 1139 357 1139 l 469 1139 q 595 997 595 1101 q 627 926 607 926 l 730 926 q 778 1076 752 926 q 888 1147 848 1147 m 654 597 q 592 579 618 597 q 567 537 567 562 q 592 495 567 512 q 654 477 618 477 q 716 495 690 477 q 742 537 742 512 q 716 579 742 562 q 654 597 690 597 z "},"$":{"ha":1197,"x_min":34,"x_max":1163,"o":"m 432 1124 l 432 1181 q 584 1312 446 1307 q 749 1176 735 1307 l 749 1147 q 1068 958 972 1114 q 1082 892 1082 925 q 1076 846 1082 869 q 957 728 1056 747 q 809 771 844 728 q 738 827 775 815 q 641 839 701 839 l 617 839 q 380 736 401 818 q 807 665 445 714 q 1163 356 1163 588 q 749 -15 1163 89 l 749 -91 q 591 -187 728 -187 q 574 -186 583 -187 q 432 -77 446 -186 l 432 -44 q 190 142 190 -22 q 332 293 218 293 l 363 293 q 498 269 467 269 l 553 269 q 791 340 791 298 q 316 420 745 370 q 111 527 208 435 q 34 688 34 600 q 39 736 34 711 q 432 1124 91 1036 z "},"%":{"ha":1033,"x_min":34,"x_max":999,"o":"m 169 958 l 200 958 q 342 799 323 958 q 176 649 342 668 q 34 791 34 680 l 34 823 q 169 958 62 949 m 841 958 l 857 958 q 999 823 999 928 l 999 783 q 809 578 999 696 q 366 64 464 240 q 193 -63 297 -63 q 42 64 42 -31 l 42 127 q 437 641 111 302 q 841 958 734 958 m 778 396 l 809 396 q 944 261 944 368 l 944 206 q 802 79 905 79 l 778 79 q 635 222 635 106 l 635 254 q 778 396 663 396 z "},"&":{"ha":1175,"x_min":34,"x_max":1141,"o":"m 564 1202 q 936 1013 844 1202 q 944 949 944 982 l 944 934 q 833 791 944 835 l 754 791 q 635 878 720 791 l 588 886 l 556 886 q 366 815 458 886 q 358 783 358 801 q 604 641 362 735 q 667 522 667 582 l 667 498 q 453 317 667 378 q 414 261 414 285 q 469 245 437 245 q 699 356 699 277 q 841 467 755 467 l 880 467 q 1070 269 985 467 q 1141 111 1141 199 q 1015 -31 1141 7 l 968 -31 q 849 32 912 -31 l 841 32 q 651 -39 678 -39 q 461 -71 621 -55 q 98 174 205 -71 q 90 245 90 217 l 90 254 q 176 491 90 378 l 176 498 q 34 791 34 661 l 34 799 q 461 1195 34 1083 q 564 1202 528 1202 z "},"'":{"ha":385,"x_min":34,"x_max":351,"o":"m 186 1203 q 351 997 337 1195 l 351 730 q 193 585 330 585 q 176 585 184 585 q 34 751 47 585 l 34 1005 q 186 1203 47 1195 z "},"(":{"ha":590,"x_min":34,"x_max":556,"o":"m 406 1219 q 556 1053 543 1219 q 414 823 556 983 q 351 546 351 693 l 351 507 q 437 245 351 323 q 493 159 493 207 l 493 95 q 351 -31 454 -31 l 342 -31 q 81 222 201 -31 q 34 530 34 386 q 256 1124 34 905 q 406 1219 309 1219 z "},")":{"ha":582,"x_min":34,"x_max":548,"o":"m 161 1219 l 216 1219 q 453 981 317 1219 q 548 641 548 795 q 334 64 548 332 q 200 0 279 0 q 58 127 58 39 l 58 190 q 169 380 58 210 q 240 641 240 573 q 113 926 224 762 q 34 1076 34 975 q 161 1219 34 1179 z "},"*":{"ha":954,"x_min":34,"x_max":920,"o":"m 517 1100 q 690 973 639 1100 l 730 981 l 793 981 q 920 831 888 981 q 802 665 920 743 q 857 538 857 587 q 690 380 857 404 l 659 388 q 604 332 644 388 q 493 285 556 285 q 334 420 381 285 l 264 420 q 105 507 149 420 q 90 578 90 543 q 129 704 90 597 q 34 831 34 779 l 34 886 q 176 1013 73 1013 q 358 934 258 1013 l 366 934 q 517 1100 395 1100 z "},"+":{"ha":875,"x_min":34,"x_max":841,"o":"m 500 878 q 659 688 642 878 q 841 554 841 656 l 841 507 q 730 372 841 414 l 635 372 q 612 349 624 372 l 612 293 q 524 103 612 157 l 485 95 l 429 95 q 295 261 311 95 q 303 340 295 271 l 279 356 q 176 349 181 349 q 34 491 34 376 l 34 522 q 216 665 34 644 q 334 704 334 665 q 500 878 355 878 z "},",":{"ha":487,"x_min":34,"x_max":453,"o":"m 295 522 l 311 522 q 453 388 453 493 l 453 349 q 319 -7 453 213 q 193 -71 273 -60 q 34 87 34 -39 q 137 340 34 118 q 295 522 137 494 z "},"-":{"ha":780,"x_min":34,"x_max":746,"o":"m 532 720 l 548 720 q 746 570 746 710 l 746 546 q 595 404 746 432 q 509 412 578 404 q 216 380 376 404 q 34 554 34 404 q 176 696 61 696 q 532 720 439 720 z "},".":{"ha":503,"x_min":38,"x_max":475,"o":"m 250 84 q 139 18 190 18 q 94 28 128 18 q 45 108 59 38 q 43 120 43 115 q 168 190 43 178 q 38 300 38 230 q 40 343 38 304 q 123 406 43 382 q 142 408 133 408 q 260 267 211 408 q 381 404 320 404 q 406 398 393 404 q 475 302 475 367 q 473 260 475 298 q 337 197 471 223 q 469 119 463 179 q 470 107 470 113 q 419 22 470 56 q 387 12 404 12 q 289 84 342 12 q 290 41 290 60 q 260 -43 290 -43 q 253 -42 257 -43 q 222 -18 222 -33 q 229 -3 222 -11 q 250 81 250 23 l 250 84 z "},"/":{"ha":812,"x_min":34,"x_max":778,"o":"m 627 1084 q 778 926 756 1084 q 659 704 778 855 q 327 135 446 373 q 208 64 264 64 l 161 64 q 34 206 34 102 l 34 222 q 279 696 45 315 q 541 1060 460 991 q 627 1084 585 1084 z "},":":{"ha":385,"x_min":34,"x_max":351,"o":"m 193 791 l 208 791 q 351 656 351 762 l 351 617 q 208 483 351 512 q 50 585 91 483 l 42 641 q 193 791 71 791 m 169 404 l 208 404 q 342 261 317 404 l 342 245 q 232 103 342 146 l 153 103 q 34 245 34 140 l 34 261 q 169 404 63 404 z "},";":{"ha":479,"x_min":34,"x_max":446,"o":"m 264 783 l 279 783 q 422 649 422 754 l 422 593 q 279 475 385 475 l 264 475 q 121 585 165 475 l 121 665 q 264 783 165 783 m 279 404 q 446 254 446 390 l 446 222 q 248 -87 446 90 q 184 -95 204 -95 q 34 47 34 -72 l 34 87 q 129 261 34 113 q 279 404 173 404 z "},"<":{"ha":836,"x_min":34,"x_max":802,"o":"m 612 949 l 675 949 q 802 799 769 949 q 524 585 802 655 l 517 570 q 635 498 517 560 q 722 380 722 430 l 722 332 q 604 198 694 198 l 541 198 q 34 585 34 402 q 612 949 34 784 z "},"=":{"ha":748,"x_min":34,"x_max":714,"o":"m 477 1005 q 690 870 690 989 l 690 807 q 572 688 690 730 l 509 688 q 446 696 476 688 l 208 665 l 153 665 q 34 807 34 702 l 34 823 q 287 989 34 970 q 477 1005 338 1005 m 429 593 l 524 593 q 707 491 654 593 q 714 427 714 447 q 595 277 714 326 l 580 277 q 437 285 469 285 q 184 254 235 254 q 34 380 34 290 l 34 444 q 200 570 34 549 q 429 593 373 593 z "},">":{"ha":772,"x_min":34,"x_max":738,"o":"m 153 989 l 208 989 q 659 807 248 989 q 738 656 738 751 q 477 388 738 538 q 248 245 306 245 l 200 245 q 74 380 116 245 l 74 404 q 248 609 74 497 l 248 625 q 90 712 248 635 q 34 807 34 769 l 34 870 q 153 989 54 970 z "},"?":{"ha":1025,"x_min":34,"x_max":991,"o":"m 615 1356 q 975 1086 823 1356 q 991 991 991 1031 l 991 968 q 619 636 991 749 l 612 565 q 469 454 583 454 l 437 454 q 279 628 301 454 q 635 976 279 867 l 643 991 l 643 1000 q 517 1047 599 1047 q 256 889 399 1047 q 169 873 224 873 q 34 1015 68 873 l 34 1047 q 220 1262 34 1169 q 615 1356 407 1356 m 456 88 q 345 22 396 22 q 300 32 334 22 q 251 112 265 42 q 250 124 250 119 q 374 194 250 182 q 244 304 244 234 q 247 347 244 308 q 330 410 249 387 q 349 412 339 412 q 467 271 417 412 q 587 408 526 408 q 612 402 600 408 q 681 306 681 371 q 679 264 681 302 q 543 201 677 227 q 675 123 669 183 q 676 111 676 117 q 625 26 676 60 q 593 16 610 16 q 495 88 549 16 q 496 45 496 64 q 467 -39 496 -39 q 459 -38 463 -39 q 428 -14 428 -29 q 435 1 428 -7 q 456 85 456 27 l 456 88 z "},"@":{"ha":1215,"x_min":34,"x_max":1181,"o":"m 675 1202 q 1165 902 1010 1202 q 1181 791 1181 842 q 817 380 1181 503 q 707 364 758 364 l 699 364 q 461 562 461 392 q 619 712 461 684 q 722 680 646 712 q 865 791 865 722 q 699 886 865 848 l 667 886 q 374 649 524 886 q 342 530 342 562 q 556 332 342 397 q 683 317 601 317 q 1046 364 764 317 q 1181 222 1141 364 l 1181 206 q 707 8 1181 8 l 643 8 q 224 151 389 8 q 34 538 34 304 l 34 554 q 477 1163 34 909 q 675 1202 605 1202 z "},"A":{"ha":1192,"x_min":34,"x_max":1158,"o":"m 588 1013 l 643 1013 q 1086 427 867 1013 q 1158 79 1158 196 l 1158 71 q 999 -71 1158 -50 q 841 79 893 -71 l 825 87 l 699 87 q 334 32 334 68 q 216 -87 315 -68 l 153 -87 q 34 32 54 -67 l 34 95 q 295 720 34 176 q 588 1013 449 1013 m 427 379 q 710 397 559 397 q 767 397 738 397 q 597 677 724 541 q 427 379 503 546 z "},"B":{"ha":1303,"x_min":34,"x_max":1270,"o":"m 566 1124 q 961 995 818 1124 q 1040 824 1040 924 q 987 642 1040 743 q 1270 312 1270 517 q 945 -71 1270 106 q 557 -142 752 -142 q 94 -59 161 -115 q 34 70 34 -11 q 36 96 34 82 q 130 237 46 195 q 126 465 126 360 q 231 1059 126 991 q 566 1124 385 1124 m 439 317 l 439 174 q 499 174 470 174 q 852 239 742 174 q 909 305 909 273 q 834 378 909 343 q 724 401 785 401 q 439 317 606 401 m 447 652 q 646 722 618 677 q 659 763 659 744 q 643 804 659 785 q 534 830 621 830 q 464 827 503 830 q 447 652 451 754 z "},"b":{"ha":1303,"x_min":34,"x_max":1270,"o":"m 566 1124 q 961 995 818 1124 q 1040 824 1040 924 q 987 642 1040 743 q 1270 312 1270 517 q 945 -71 1270 106 q 557 -142 752 -142 q 94 -59 161 -115 q 34 70 34 -11 q 36 96 34 82 q 130 237 46 195 q 126 465 126 360 q 231 1059 126 991 q 566 1124 385 1124 m 439 317 l 439 174 q 499 174 470 174 q 852 239 742 174 q 909 305 909 273 q 834 378 909 343 q 724 401 785 401 q 439 317 606 401 m 447 652 q 646 722 618 677 q 659 763 659 744 q 643 804 659 785 q 534 830 621 830 q 464 827 503 830 q 447 652 451 754 z "},"C":{"ha":1065,"x_min":34,"x_max":1031,"o":"m 627 1092 q 977 873 873 1072 q 1009 762 1009 810 q 857 633 1009 660 q 722 704 787 633 q 604 775 656 775 q 358 585 427 775 l 351 538 l 351 491 q 524 285 389 285 l 532 285 q 748 352 659 285 q 865 420 838 420 l 888 420 q 1031 277 1031 392 l 1031 254 q 837 29 991 108 q 563 -33 715 -33 q 396 -19 521 -33 q 155 165 272 -6 q 34 515 38 337 q 358 1036 34 856 q 627 1092 480 1092 z "},"c":{"ha":1065,"x_min":34,"x_max":1031,"o":"m 627 1092 q 977 873 873 1072 q 1009 762 1009 810 q 857 633 1009 660 q 722 704 787 633 q 604 775 656 775 q 358 585 427 775 l 351 538 l 351 491 q 524 285 389 285 l 532 285 q 748 352 659 285 q 865 420 838 420 l 888 420 q 1031 277 1031 392 l 1031 254 q 837 29 991 108 q 563 -33 715 -33 q 396 -19 521 -33 q 155 165 272 -6 q 34 515 38 337 q 358 1036 34 856 q 627 1092 480 1092 z "},"D":{"ha":1136,"x_min":34,"x_max":1102,"o":"m 390 1044 q 1055 673 824 1044 q 1102 475 1102 572 l 1102 420 q 216 -111 1102 -22 l 208 -111 q 34 56 34 -111 q 121 198 34 119 q 90 570 90 443 l 90 704 q 279 1029 90 958 q 390 1044 339 1044 m 414 728 l 398 704 l 398 633 q 446 245 406 302 l 453 245 q 793 444 793 319 q 453 728 793 646 l 414 728 z "},"d":{"ha":1136,"x_min":34,"x_max":1102,"o":"m 390 1044 q 1055 673 824 1044 q 1102 475 1102 572 l 1102 420 q 216 -111 1102 -22 l 208 -111 q 34 56 34 -111 q 121 198 34 119 q 90 570 90 443 l 90 704 q 279 1029 90 958 q 390 1044 339 1044 m 414 728 l 398 704 l 398 633 q 446 245 406 302 l 453 245 q 793 444 793 319 q 453 728 793 646 l 414 728 z "},"E":{"ha":1136,"x_min":34,"x_max":1077,"o":"m 729 1050 q 977 910 915 1029 q 1001 823 1001 862 q 946 724 1001 764 q 836 683 890 683 q 768 699 802 683 q 655 724 718 724 q 564 713 612 724 q 446 641 446 684 q 488 627 446 627 q 546 631 511 627 q 585 633 567 633 q 696 597 656 633 q 737 488 737 560 q 735 454 737 472 q 597 311 724 357 q 390 222 390 264 q 406 206 393 206 l 422 206 q 897 380 635 206 q 937 384 918 384 q 1074 229 1050 384 q 1077 193 1077 210 q 846 -40 1077 38 q 429 -113 630 -113 q 357 -111 393 -113 q 42 127 122 -95 q 34 222 34 170 q 137 451 34 340 q 81 649 81 542 q 312 969 81 867 q 665 1053 503 1053 q 729 1050 697 1053 z "},"e":{"ha":1136,"x_min":34,"x_max":1077,"o":"m 729 1050 q 977 910 915 1029 q 1001 823 1001 862 q 946 724 1001 764 q 836 683 890 683 q 768 699 802 683 q 655 724 718 724 q 564 713 612 724 q 446 641 446 684 q 488 627 446 627 q 546 631 511 627 q 585 633 567 633 q 696 597 656 633 q 737 488 737 560 q 735 454 737 472 q 597 311 724 357 q 390 222 390 264 q 406 206 393 206 l 422 206 q 897 380 635 206 q 937 384 918 384 q 1074 229 1050 384 q 1077 193 1077 210 q 846 -40 1077 38 q 429 -113 630 -113 q 357 -111 393 -113 q 42 127 122 -95 q 34 222 34 170 q 137 451 34 340 q 81 649 81 542 q 312 969 81 867 q 665 1053 503 1053 q 729 1050 697 1053 z "},"F":{"ha":890,"x_min":34,"x_max":857,"o":"m 517 1053 q 849 934 769 1053 l 857 878 l 857 846 q 738 712 827 712 l 675 712 q 509 744 534 744 q 351 649 351 744 q 342 585 342 641 q 366 562 342 574 q 588 578 535 578 q 722 435 682 578 l 722 420 q 437 254 722 254 l 390 254 l 374 230 q 398 71 398 118 l 398 40 q 279 -79 378 -60 l 216 -79 q 58 254 80 -79 q 34 530 34 336 l 34 625 q 342 1036 34 950 q 517 1053 442 1053 z "},"f":{"ha":890,"x_min":34,"x_max":857,"o":"m 517 1053 q 849 934 769 1053 l 857 878 l 857 846 q 738 712 827 712 l 675 712 q 509 744 534 744 q 351 649 351 744 q 342 585 342 641 q 366 562 342 574 q 588 578 535 578 q 722 435 682 578 l 722 420 q 437 254 722 254 l 390 254 l 374 230 q 398 71 398 118 l 398 40 q 279 -79 378 -60 l 216 -79 q 58 254 80 -79 q 34 530 34 336 l 34 625 q 342 1036 34 950 q 517 1053 442 1053 z "},"G":{"ha":1223,"x_min":34,"x_max":1189,"o":"m 707 1044 q 1063 902 973 1044 q 1078 815 1078 871 q 920 673 1078 697 q 770 728 893 673 q 707 736 750 728 q 406 617 572 736 q 351 507 351 540 l 351 491 q 548 285 351 394 q 714 245 675 245 q 802 285 802 258 q 619 420 619 319 l 619 483 q 778 609 619 581 q 1181 388 1077 609 l 1189 340 l 1189 293 q 904 -31 1189 130 q 738 -63 806 -63 l 699 -63 q 74 317 311 -63 q 34 498 34 420 q 422 989 34 809 q 707 1044 555 1044 z "},"g":{"ha":1223,"x_min":34,"x_max":1189,"o":"m 707 1044 q 1063 902 973 1044 q 1078 815 1078 871 q 920 673 1078 697 q 770 728 893 673 q 707 736 750 728 q 406 617 572 736 q 351 507 351 540 l 351 491 q 548 285 351 394 q 714 245 675 245 q 802 285 802 258 q 619 420 619 319 l 619 483 q 778 609 619 581 q 1181 388 1077 609 l 1189 340 l 1189 293 q 904 -31 1189 130 q 738 -63 806 -63 l 699 -63 q 74 317 311 -63 q 34 498 34 420 q 422 989 34 809 q 707 1044 555 1044 z "},"H":{"ha":1208,"x_min":34,"x_max":1174,"o":"m 1031 1084 q 1174 941 1174 1051 l 1174 918 q 1135 498 1135 656 l 1135 444 q 1147 234 1135 341 q 1151 161 1151 195 q 1138 60 1151 102 q 992 -7 1117 -7 q 832 92 853 -7 q 812 340 812 192 q 616 351 711 351 q 430 340 521 351 q 454 119 430 272 l 454 103 q 296 -39 454 -20 q 130 174 130 -11 l 130 319 l 125 319 q 35 458 46 319 q 34 486 34 472 q 124 642 34 606 q 186 981 139 925 q 290 1025 221 1025 q 335 1021 311 1025 q 470 878 441 1021 l 470 854 q 433 652 438 721 q 625 661 536 661 q 817 649 730 661 l 850 878 q 1031 1084 878 1084 z "},"h":{"ha":1208,"x_min":34,"x_max":1174,"o":"m 1031 1084 q 1174 941 1174 1051 l 1174 918 q 1135 498 1135 656 l 1135 444 q 1147 234 1135 341 q 1151 161 1151 195 q 1138 60 1151 102 q 992 -7 1117 -7 q 832 92 853 -7 q 812 340 812 192 q 616 351 711 351 q 430 340 521 351 q 454 119 430 272 l 454 103 q 296 -39 454 -20 q 130 174 130 -11 l 130 319 l 125 319 q 35 458 46 319 q 34 486 34 472 q 124 642 34 606 q 186 981 139 925 q 290 1025 221 1025 q 335 1021 311 1025 q 470 878 441 1021 l 470 854 q 433 652 438 721 q 625 661 536 661 q 817 649 730 661 l 850 878 q 1031 1084 878 1084 z "},"I":{"ha":400,"x_min":34,"x_max":366,"o":"m 200 997 q 366 854 366 981 q 351 602 351 621 l 351 190 q 224 47 351 86 l 169 47 q 42 198 71 47 q 34 388 42 212 q 105 949 34 949 q 200 997 134 997 z "},"J":{"ha":979,"x_min":34,"x_max":945,"o":"m 454 1005 l 732 1005 q 922 863 871 1005 q 945 515 945 709 q 652 0 945 120 q 518 -24 589 -24 l 463 -24 q 148 93 275 -14 q 34 274 34 188 q 35 293 34 283 q 178 444 64 444 l 201 444 q 376 332 273 444 q 488 286 431 286 q 532 294 510 286 q 634 419 610 319 q 644 514 644 460 q 625 688 644 589 l 478 688 q 296 831 296 709 l 296 863 q 454 1005 296 983 z "},"j":{"ha":979,"x_min":34,"x_max":945,"o":"m 454 1005 l 732 1005 q 922 863 871 1005 q 945 515 945 709 q 652 0 945 120 q 518 -24 589 -24 l 463 -24 q 148 93 275 -14 q 34 274 34 188 q 35 293 34 283 q 178 444 64 444 l 201 444 q 376 332 273 444 q 488 286 431 286 q 532 294 510 286 q 634 419 610 319 q 644 514 644 460 q 625 688 644 589 l 478 688 q 296 831 296 709 l 296 863 q 454 1005 296 983 z "},"K":{"ha":1041,"x_min":34,"x_max":1007,"o":"m 169 1107 l 208 1107 q 351 949 321 1107 l 351 799 q 374 783 351 783 q 802 1076 543 889 l 857 1084 q 1007 949 1007 1057 l 1007 894 q 635 578 1007 811 q 580 530 580 538 l 580 522 q 865 396 608 494 q 960 261 960 334 l 960 230 q 809 87 960 116 q 398 245 765 87 l 358 254 q 311 -16 338 -16 q 184 -79 270 -79 q 34 40 77 -79 q 42 562 42 380 l 42 799 q 34 989 42 878 q 169 1107 83 1107 z "},"k":{"ha":1041,"x_min":34,"x_max":1007,"o":"m 169 1107 l 208 1107 q 351 949 321 1107 l 351 799 q 374 783 351 783 q 802 1076 543 889 l 857 1084 q 1007 949 1007 1057 l 1007 894 q 635 578 1007 811 q 580 530 580 538 l 580 522 q 865 396 608 494 q 960 261 960 334 l 960 230 q 809 87 960 116 q 398 245 765 87 l 358 254 q 311 -16 338 -16 q 184 -79 270 -79 q 34 40 77 -79 q 42 562 42 380 l 42 799 q 34 989 42 878 q 169 1107 83 1107 z "},"L":{"ha":804,"x_min":34,"x_max":770,"o":"m 216 1107 l 248 1107 q 390 949 363 1107 q 342 301 342 384 l 366 285 q 612 317 573 317 q 770 159 770 288 q 580 0 770 10 q 327 -31 378 -31 q 50 119 126 -31 q 34 214 34 174 l 34 317 q 113 1060 67 1060 q 216 1107 165 1107 z "},"l":{"ha":804,"x_min":34,"x_max":770,"o":"m 216 1107 l 248 1107 q 390 949 363 1107 q 342 301 342 384 l 366 285 q 612 317 573 317 q 770 159 770 288 q 580 0 770 10 q 327 -31 378 -31 q 50 119 126 -31 q 34 214 34 174 l 34 317 q 113 1060 67 1060 q 216 1107 165 1107 z "},"M":{"ha":1480,"x_min":34,"x_max":1446,"o":"m 1056 1100 q 1411 364 1215 1100 q 1446 189 1446 262 q 1432 106 1446 141 q 1301 16 1394 16 q 1134 160 1169 16 q 992 625 1099 304 q 708 377 837 377 l 705 377 q 470 578 574 380 l 375 222 q 178 -47 324 -47 q 58 20 102 -47 q 34 108 34 56 q 51 206 34 151 q 233 941 138 636 q 422 1084 294 1084 q 715 815 547 1084 q 820 965 736 815 q 1029 1101 897 1101 q 1056 1100 1042 1101 z "},"m":{"ha":1480,"x_min":34,"x_max":1446,"o":"m 1056 1100 q 1411 364 1215 1100 q 1446 189 1446 262 q 1432 106 1446 141 q 1301 16 1394 16 q 1134 160 1169 16 q 992 625 1099 304 q 708 377 837 377 l 705 377 q 470 578 574 380 l 375 222 q 178 -47 324 -47 q 58 20 102 -47 q 34 108 34 56 q 51 206 34 151 q 233 941 138 636 q 422 1084 294 1084 q 715 815 547 1084 q 820 965 736 815 q 1029 1101 897 1101 q 1056 1100 1042 1101 z "},"N":{"ha":1133,"x_min":34,"x_max":1099,"o":"m 910 1106 q 1071 792 1036 1068 q 1099 347 1099 558 q 1099 273 1099 309 q 920 -7 1093 28 q 580 245 769 -7 q 358 491 370 491 l 351 491 l 342 475 l 342 119 q 232 -24 342 20 l 153 -24 q 34 119 34 14 l 34 515 q 129 910 34 844 q 232 949 184 949 l 264 949 q 724 543 416 949 q 748 536 739 536 l 755 551 q 718 884 718 760 q 775 1059 718 1036 q 910 1106 808 1106 z "},"n":{"ha":1133,"x_min":34,"x_max":1099,"o":"m 910 1106 q 1071 792 1036 1068 q 1099 347 1099 558 q 1099 273 1099 309 q 920 -7 1093 28 q 580 245 769 -7 q 358 491 370 491 l 351 491 l 342 475 l 342 119 q 232 -24 342 20 l 153 -24 q 34 119 34 14 l 34 515 q 129 910 34 844 q 232 949 184 949 l 264 949 q 724 543 416 949 q 748 536 739 536 l 755 551 q 718 884 718 760 q 775 1059 718 1036 q 910 1106 808 1106 z "},"O":{"ha":1274,"x_min":34,"x_max":1240,"o":"m 637 1027 q 1063 871 886 1027 q 1240 492 1240 714 q 1063 114 1240 271 q 637 -43 886 -43 q 210 114 387 -43 q 34 492 34 271 q 210 871 34 714 q 637 1027 387 1027 m 633 708 q 465 645 534 708 q 396 494 396 583 q 465 343 396 406 q 633 280 534 280 q 800 343 731 280 q 869 494 869 406 q 800 645 869 583 q 633 708 731 708 z "},"P":{"ha":1166,"x_min":34,"x_max":1132,"o":"m 572 1131 q 621 1132 597 1132 q 1122 833 1074 1132 q 1132 717 1132 771 q 966 408 1132 496 q 649 314 787 314 q 604 317 625 314 q 627 40 627 61 q 477 -111 598 -111 l 461 -111 q 287 174 313 -111 q 264 498 264 388 q 271 760 264 614 l 232 751 l 153 751 q 34 886 70 751 l 34 910 q 414 1116 34 1074 q 572 1131 455 1124 m 588 618 q 741 716 741 669 l 741 718 q 595 780 737 766 l 588 618 z "},"p":{"ha":1166,"x_min":34,"x_max":1132,"o":"m 572 1131 q 621 1132 597 1132 q 1122 833 1074 1132 q 1132 717 1132 771 q 966 408 1132 496 q 649 314 787 314 q 604 317 625 314 q 627 40 627 61 q 477 -111 598 -111 l 461 -111 q 287 174 313 -111 q 264 498 264 388 q 271 760 264 614 l 232 751 l 153 751 q 34 886 70 751 l 34 910 q 414 1116 34 1074 q 572 1131 455 1124 m 588 618 q 741 716 741 669 l 741 718 q 595 780 737 766 l 588 618 z "},"Q":{"ha":1278,"x_min":34,"x_max":1244,"o":"m 633 708 q 465 645 534 708 q 396 494 396 583 q 465 343 396 406 q 633 280 534 280 q 800 343 731 280 q 869 494 869 406 q 800 645 869 583 q 633 708 731 708 m 878 0 q 637 -43 768 -43 q 210 114 387 -43 q 34 492 34 271 q 210 871 34 714 q 637 1027 387 1027 q 1063 871 886 1027 q 1240 492 1240 714 q 1140 196 1240 326 q 1240 96 1216 163 q 1244 68 1244 82 q 1171 -46 1244 14 q 1050 -101 1103 -101 q 1012 -93 1029 -101 q 878 0 945 -64 z "},"q":{"ha":1278,"x_min":34,"x_max":1244,"o":"m 633 708 q 465 645 534 708 q 396 494 396 583 q 465 343 396 406 q 633 280 534 280 q 800 343 731 280 q 869 494 869 406 q 800 645 869 583 q 633 708 731 708 m 878 0 q 637 -43 768 -43 q 210 114 387 -43 q 34 492 34 271 q 210 871 34 714 q 637 1027 387 1027 q 1063 871 886 1027 q 1240 492 1240 714 q 1140 196 1240 326 q 1240 96 1216 163 q 1244 68 1244 82 q 1171 -46 1244 14 q 1050 -101 1103 -101 q 1012 -93 1029 -101 q 878 0 945 -64 z "},"R":{"ha":1217,"x_min":34,"x_max":1183,"o":"m 588 1107 q 1086 823 975 1107 q 1102 720 1102 777 q 852 416 1102 571 q 1183 192 1183 308 q 1181 173 1183 182 q 994 22 1152 46 q 576 263 720 62 q 583 127 576 173 q 589 39 589 81 q 446 -87 584 -81 q 430 -87 438 -87 q 264 24 314 -87 q 224 420 232 227 q 252 729 232 620 l 224 728 q 93 750 153 728 q 34 886 34 772 q 429 1107 34 1076 l 588 1107 m 588 614 q 717 697 717 657 l 717 699 q 594 751 714 739 l 588 614 z "},"r":{"ha":1217,"x_min":34,"x_max":1183,"o":"m 588 1107 q 1086 823 975 1107 q 1102 720 1102 777 q 852 416 1102 571 q 1183 192 1183 308 q 1181 173 1183 182 q 994 22 1152 46 q 576 263 720 62 q 583 127 576 173 q 589 39 589 81 q 446 -87 584 -81 q 430 -87 438 -87 q 264 24 314 -87 q 224 420 232 227 q 252 729 232 620 l 224 728 q 93 750 153 728 q 34 886 34 772 q 429 1107 34 1076 l 588 1107 m 588 614 q 717 697 717 657 l 717 699 q 594 751 714 739 l 588 614 z "},"S":{"ha":1197,"x_min":34,"x_max":1163,"o":"m 625 1155 q 1068 958 948 1155 q 1082 892 1082 925 q 1076 846 1082 869 q 957 728 1056 747 q 809 771 844 728 q 738 827 775 815 q 641 839 701 839 l 617 839 q 380 736 401 818 q 807 665 445 714 q 1163 356 1163 588 q 633 -39 1163 54 q 514 -47 564 -47 q 190 142 190 -47 q 332 293 218 293 l 363 293 q 498 269 467 269 l 553 269 q 791 340 791 298 q 316 420 745 370 q 111 527 208 435 q 34 688 34 600 q 39 736 34 711 q 625 1155 104 1112 z "},"s":{"ha":1197,"x_min":34,"x_max":1163,"o":"m 625 1155 q 1068 958 948 1155 q 1082 892 1082 925 q 1076 846 1082 869 q 957 728 1056 747 q 809 771 844 728 q 738 827 775 815 q 641 839 701 839 l 617 839 q 380 736 401 818 q 807 665 445 714 q 1163 356 1163 588 q 633 -39 1163 54 q 514 -47 564 -47 q 190 142 190 -47 q 332 293 218 293 l 363 293 q 498 269 467 269 l 553 269 q 791 340 791 298 q 316 420 745 370 q 111 527 208 435 q 34 688 34 600 q 39 736 34 711 q 625 1155 104 1112 z "},"T":{"ha":883,"x_min":34,"x_max":849,"o":"m 493 1116 q 553 1117 525 1117 q 849 961 849 1117 l 849 944 q 690 799 849 812 l 627 799 q 612 783 612 797 q 606 142 612 732 q 448 16 565 16 q 290 261 290 16 q 287 481 287 383 q 296 760 287 660 q 193 728 216 728 l 176 728 q 34 902 34 757 q 493 1116 34 1079 z "},"t":{"ha":883,"x_min":34,"x_max":849,"o":"m 493 1116 q 553 1117 525 1117 q 849 961 849 1117 l 849 944 q 690 799 849 812 l 627 799 q 612 783 612 797 q 606 142 612 732 q 448 16 565 16 q 290 261 290 16 q 287 481 287 383 q 296 760 287 660 q 193 728 216 728 l 176 728 q 34 902 34 757 q 493 1116 34 1079 z "},"U":{"ha":1207,"x_min":34,"x_max":1173,"o":"m 240 1084 l 287 1084 q 422 941 393 1084 l 422 918 q 351 602 351 691 q 342 498 342 574 q 429 309 342 309 q 659 467 552 309 q 825 997 762 609 q 975 1076 876 1076 q 1126 823 1126 1076 q 1173 103 1126 747 q 1031 -16 1127 -16 l 1007 -16 q 865 111 909 -16 q 841 182 865 182 q 446 -7 623 -7 l 422 -7 q 58 285 164 -7 q 34 491 34 362 l 34 538 q 240 1084 68 1084 z "},"u":{"ha":1207,"x_min":34,"x_max":1173,"o":"m 240 1084 l 287 1084 q 422 941 393 1084 l 422 918 q 351 602 351 691 q 342 498 342 574 q 429 309 342 309 q 659 467 552 309 q 825 997 762 609 q 975 1076 876 1076 q 1126 823 1126 1076 q 1173 103 1126 747 q 1031 -16 1127 -16 l 1007 -16 q 865 111 909 -16 q 841 182 865 182 q 446 -7 623 -7 l 422 -7 q 58 285 164 -7 q 34 491 34 362 l 34 538 q 240 1084 68 1084 z "},"V":{"ha":1183,"x_min":34,"x_max":1149,"o":"m 999 1053 q 1149 886 1136 1053 q 999 538 1149 848 q 699 8 815 8 l 651 0 q 382 285 507 0 l 42 831 l 34 878 q 193 1036 60 1036 q 422 815 321 1036 l 627 498 l 635 498 q 817 910 651 513 q 999 1053 886 1053 z "},"v":{"ha":1183,"x_min":34,"x_max":1149,"o":"m 999 1053 q 1149 886 1136 1053 q 999 538 1149 848 q 699 8 815 8 l 651 0 q 382 285 507 0 l 42 831 l 34 878 q 193 1036 60 1036 q 422 815 321 1036 l 627 498 l 635 498 q 817 910 651 513 q 999 1053 886 1053 z "},"W":{"ha":1397,"x_min":34,"x_max":1363,"o":"m 169 1060 l 208 1060 q 366 863 328 1060 q 461 593 395 796 l 469 593 q 659 736 538 736 q 920 538 755 736 q 944 530 935 530 q 1063 973 1063 951 q 1165 1044 1119 1044 l 1221 1044 q 1363 902 1322 1044 l 1363 863 q 1078 87 1173 87 q 983 56 1057 56 q 746 254 881 56 l 699 293 l 690 293 q 588 103 679 293 q 461 24 527 24 l 429 24 q 145 546 254 24 q 34 934 34 835 q 169 1060 75 1060 z "},"w":{"ha":1397,"x_min":34,"x_max":1363,"o":"m 169 1060 l 208 1060 q 366 863 328 1060 q 461 593 395 796 l 469 593 q 659 736 538 736 q 920 538 755 736 q 944 530 935 530 q 1063 973 1063 951 q 1165 1044 1119 1044 l 1221 1044 q 1363 902 1322 1044 l 1363 863 q 1078 87 1173 87 q 983 56 1057 56 q 746 254 881 56 l 699 293 l 690 293 q 588 103 679 293 q 461 24 527 24 l 429 24 q 145 546 254 24 q 34 934 34 835 q 169 1060 75 1060 z "},"X":{"ha":1025,"x_min":34,"x_max":991,"o":"m 825 1084 l 841 1084 q 991 926 970 1084 q 802 680 991 839 q 675 498 675 536 l 865 222 q 897 95 897 151 l 897 71 q 754 -55 857 -55 l 730 -55 q 532 159 625 -55 q 461 222 488 222 q 334 -16 433 185 q 208 -79 271 -79 q 42 56 42 -63 l 42 111 q 248 483 42 141 q 256 507 256 483 l 42 823 q 34 894 34 865 q 176 1036 61 1036 l 200 1036 q 437 791 304 1036 l 469 783 q 675 997 482 783 q 825 1084 758 1084 z "},"x":{"ha":1025,"x_min":34,"x_max":991,"o":"m 825 1084 l 841 1084 q 991 926 970 1084 q 802 680 991 839 q 675 498 675 536 l 865 222 q 897 95 897 151 l 897 71 q 754 -55 857 -55 l 730 -55 q 532 159 625 -55 q 461 222 488 222 q 334 -16 433 185 q 208 -79 271 -79 q 42 56 42 -63 l 42 111 q 248 483 42 141 q 256 507 256 483 l 42 823 q 34 894 34 865 q 176 1036 61 1036 l 200 1036 q 437 791 304 1036 l 469 783 q 675 997 482 783 q 825 1084 758 1084 z "},"Y":{"ha":1088,"x_min":34,"x_max":1055,"o":"m 888 1155 l 912 1155 q 1055 1013 1055 1128 l 1055 989 q 944 815 1055 924 q 627 459 703 535 q 580 -7 595 338 q 422 -119 528 -119 q 271 32 307 -119 q 311 483 279 290 q 34 910 34 839 l 34 934 q 176 1076 61 1076 l 200 1076 q 422 854 311 1076 q 493 783 472 783 q 762 1084 512 785 q 888 1155 827 1155 z "},"y":{"ha":1088,"x_min":34,"x_max":1055,"o":"m 888 1155 l 912 1155 q 1055 1013 1055 1128 l 1055 989 q 944 815 1055 924 q 627 459 703 535 q 580 -7 595 338 q 422 -119 528 -119 q 271 32 307 -119 q 311 483 279 290 q 34 910 34 839 l 34 934 q 176 1076 61 1076 l 200 1076 q 422 854 311 1076 q 493 783 472 783 q 762 1084 512 785 q 888 1155 827 1155 z "},"Z":{"ha":1160,"x_min":34,"x_max":1126,"o":"m 619 1124 l 651 1124 q 1046 902 993 1124 l 1046 894 q 793 585 1046 741 q 556 404 576 435 q 580 388 556 388 q 1055 309 857 388 q 1126 190 1126 255 l 1126 142 q 991 16 1126 59 l 975 16 q 635 71 752 71 q 264 56 477 71 q 34 261 34 73 q 517 775 34 422 l 517 783 l 509 799 q 256 736 299 736 q 105 894 130 736 q 446 1107 105 1048 q 619 1124 562 1124 z "},"z":{"ha":1160,"x_min":34,"x_max":1126,"o":"m 619 1124 l 651 1124 q 1046 902 993 1124 l 1046 894 q 793 585 1046 741 q 556 404 576 435 q 580 388 556 388 q 1055 309 857 388 q 1126 190 1126 255 l 1126 142 q 991 16 1126 59 l 975 16 q 635 71 752 71 q 264 56 477 71 q 34 261 34 73 q 517 775 34 422 l 517 783 l 509 799 q 256 736 299 736 q 105 894 130 736 q 446 1107 105 1048 q 619 1124 562 1124 z "},"[":{"ha":677,"x_min":34,"x_max":643,"o":"m 358 1171 l 374 1171 q 627 1092 583 1171 q 643 1021 643 1040 l 643 997 q 517 854 643 893 l 446 854 l 398 863 q 342 530 342 851 l 342 491 q 390 277 342 277 q 548 182 503 277 q 556 119 556 138 q 390 -31 556 -18 l 342 -31 q 34 427 34 -31 l 34 570 q 169 1107 34 1016 q 358 1171 242 1171 z "},"\\":{"ha":732,"x_min":34,"x_max":699,"o":"m 184 1147 l 200 1147 q 398 854 340 1147 q 690 198 564 448 l 699 151 q 556 0 670 0 l 524 0 q 248 404 395 0 q 34 997 104 699 q 184 1147 61 1147 z "},"]":{"ha":661,"x_min":34,"x_max":627,"o":"m 169 1179 l 311 1179 q 604 1021 541 1179 q 627 815 627 943 q 532 142 607 195 q 216 -16 407 -16 l 184 -16 q 42 142 60 -16 q 232 301 42 278 q 303 538 289 301 q 319 854 319 779 l 295 870 l 208 870 q 34 997 70 870 l 34 1036 q 169 1179 63 1179 z "},"^":{"ha":954,"x_min":34,"x_max":920,"o":"m 453 1163 l 509 1163 q 738 965 602 1163 q 920 704 920 774 l 920 656 q 762 530 920 555 q 548 712 675 530 q 469 775 494 775 q 264 515 322 559 l 184 498 q 34 625 34 531 l 34 688 q 311 1084 34 733 q 453 1163 389 1163 z "},"_":{"ha":1128,"x_min":34,"x_max":1094,"o":"m 754 301 l 778 301 q 1094 182 1042 301 l 1094 103 q 944 -31 1094 -6 l 762 -7 q 193 -71 661 -7 l 176 -71 q 34 95 50 -71 q 232 245 34 228 q 754 301 554 301 z "},"a":{"ha":1274,"x_min":79,"x_max":1186,"o":"m 563 26 q 616 235 616 90 l 616 246 q 336 80 464 80 q 283 87 309 80 q 114 226 134 130 q 94 338 94 322 q 408 513 94 484 q 79 796 79 614 q 80 809 79 802 q 207 1034 92 1001 q 347 1066 322 1066 q 644 707 519 1066 q 949 1055 795 1055 q 1011 1040 980 1055 q 1186 798 1186 962 q 1185 778 1186 788 q 838 532 1175 599 q 1164 403 1154 487 q 1173 302 1173 319 q 1046 89 1173 174 q 964 62 1006 62 q 716 246 852 62 q 720 136 720 186 q 642 -75 720 -75 q 624 -73 633 -75 q 545 -14 545 -51 q 563 26 545 5 m 646 618 q 576 549 612 618 q 513 399 513 418 l 513 385 q 542 356 518 361 l 557 356 q 585 385 581 361 q 672 397 585 393 l 702 397 l 706 395 q 743 359 718 359 q 781 394 781 365 l 781 395 q 764 479 781 423 q 659 618 712 618 l 646 618 m 607 467 q 648 538 625 507 q 688 471 678 506 l 675 471 q 607 467 639 471 z "},"i":{"ha":511,"x_min":34,"x_max":479,"o":"m 193 704 l 256 704 q 376 591 376 692 q 374 570 376 581 l 374 546 q 351 332 351 396 l 351 237 q 366 32 366 40 q 208 -102 366 -77 q 61 63 89 -85 q 34 269 34 211 q 193 704 34 704 m 254 881 q 144 815 195 815 q 98 825 133 815 q 50 905 64 835 q 48 917 48 911 q 172 987 48 975 q 43 1097 43 1027 q 45 1140 43 1101 q 128 1202 47 1179 q 147 1205 138 1205 q 265 1063 216 1205 q 386 1200 325 1200 q 410 1195 398 1200 q 479 1099 479 1164 q 477 1057 479 1095 q 342 994 475 1020 q 474 916 467 976 q 475 904 475 910 q 424 819 475 852 q 392 808 408 808 q 294 881 347 808 q 295 838 295 857 q 265 753 295 753 q 258 755 262 753 q 227 779 227 764 q 233 794 227 786 q 254 878 254 820 l 254 881 z "},"o":{"ha":1274,"x_min":34,"x_max":1240,"o":"m 637 1027 q 1063 871 886 1027 q 1240 492 1240 714 q 1063 114 1240 271 q 637 -43 886 -43 q 210 114 387 -43 q 34 492 34 271 q 210 871 34 714 q 637 1027 387 1027 m 584 225 q 574 203 574 213 q 619 169 574 181 q 629 168 625 168 q 673 288 673 168 q 671 350 673 316 q 812 245 749 245 q 859 260 837 245 q 931 383 931 309 q 926 439 931 392 q 741 513 920 487 q 939 652 932 551 l 939 663 q 839 802 939 756 q 804 810 821 810 q 630 612 716 810 q 461 817 559 817 q 382 798 448 817 q 310 671 317 779 l 310 663 q 496 502 310 559 q 318 403 318 486 q 329 339 318 394 q 425 260 340 284 q 456 256 440 256 q 614 350 528 256 l 614 347 q 584 225 614 262 z "},"|":{"ha":432,"x_min":34,"x_max":398,"o":"m 216 1124 l 256 1124 q 398 949 376 1124 l 398 941 q 342 475 342 684 q 358 135 358 220 q 216 16 315 16 q 58 119 99 16 q 34 444 34 294 l 34 491 q 90 1036 34 711 q 216 1124 152 1124 z "},"~":{"ha":1057,"x_min":34,"x_max":1023,"o":"m 406 846 l 429 846 q 690 665 576 846 l 699 665 l 762 768 q 873 807 819 807 q 1023 665 1023 781 l 1023 641 q 833 325 1023 437 q 754 301 793 301 l 683 301 q 414 507 574 301 l 398 515 q 287 380 386 515 q 200 349 245 349 l 176 349 q 34 491 34 376 l 34 515 q 271 823 34 633 q 406 846 348 846 z "},"¢":{"ha":812,"x_min":34,"x_max":778,"o":"m 437 1021 q 604 902 561 1021 q 707 854 604 891 q 778 712 778 794 q 643 570 746 570 l 595 570 q 524 585 576 570 q 358 515 420 585 q 469 444 370 444 l 604 444 q 746 317 707 444 l 746 261 q 612 127 746 184 q 564 32 593 127 q 429 -31 509 -31 q 271 174 271 -31 q 34 498 34 290 q 287 854 34 712 q 437 1021 316 1021 z "},"£":{"ha":1097,"x_min":34,"x_max":1063,"o":"m 683 1147 q 1039 949 961 1147 l 1039 870 q 920 751 1019 771 l 857 751 q 730 831 823 751 l 683 831 q 588 744 618 831 l 588 736 l 612 720 l 675 720 q 825 562 801 720 q 707 412 825 463 l 556 412 q 524 285 524 412 q 532 277 532 285 q 928 301 756 301 q 1063 182 1016 301 l 1063 127 q 912 -7 1063 12 q 327 -39 465 -39 q 153 111 153 -16 l 153 127 q 208 340 153 165 l 216 388 l 113 427 q 34 570 34 458 q 161 712 34 673 l 232 712 q 311 910 252 712 q 683 1147 452 1147 z "},"‘":{"ha":487,"x_min":34,"x_max":453,"o":"m 193 609 l 176 609 q 34 744 34 638 l 34 783 q 169 1139 34 918 q 295 1202 214 1191 q 453 1044 453 1171 q 351 791 453 1013 q 193 609 351 637 z "},"’":{"ha":487,"x_min":34,"x_max":453,"o":"m 295 1202 l 311 1202 q 453 1068 453 1173 l 453 1029 q 319 673 453 893 q 192 609 273 621 q 34 768 34 641 q 137 1021 34 798 q 295 1202 137 1174 z "},"“":{"ha":1074,"x_min":34,"x_max":1040,"o":"m 193 609 l 176 609 q 34 744 34 638 l 34 783 q 169 1139 34 918 q 295 1202 214 1191 q 453 1044 453 1171 q 351 791 453 1013 q 193 609 351 637 m 779 609 l 763 609 q 621 744 621 638 l 621 783 q 755 1139 621 918 q 882 1202 801 1191 q 1040 1044 1040 1171 q 937 791 1040 1013 q 779 609 937 637 z "},"”":{"ha":1074,"x_min":34,"x_max":1040,"o":"m 295 1202 l 311 1202 q 453 1068 453 1173 l 453 1029 q 319 673 453 893 q 192 609 273 621 q 34 768 34 641 q 137 1021 34 798 q 295 1202 137 1174 m 882 1202 l 897 1202 q 1040 1068 1040 1173 l 1040 1029 q 905 673 1040 893 q 779 609 860 621 q 621 768 621 641 q 724 1021 621 798 q 882 1202 724 1174 z "},"…":{"ha":1250,"x_min":34,"x_max":1216,"o":"m 260 389 l 281 377 q 353 251 353 315 q 333 182 353 217 l 321 162 q 195 90 259 90 q 126 110 161 90 l 106 122 q 34 248 34 184 q 54 316 34 282 l 66 337 q 192 409 128 409 q 260 389 226 409 m 692 389 l 712 377 q 784 251 784 315 q 764 182 784 217 l 752 162 q 626 90 690 90 q 557 110 592 90 l 537 122 q 465 248 465 184 q 486 316 465 282 l 497 337 q 624 409 559 409 q 692 389 657 409 m 1123 389 l 1143 377 q 1216 251 1216 315 q 1196 182 1216 217 l 1184 162 q 1057 90 1122 90 q 989 110 1024 90 l 968 122 q 897 248 897 184 q 917 316 897 281 l 929 337 q 1055 409 991 409 q 1123 389 1088 409 z "},"€":{"ha":1215,"x_min":34,"x_max":1181,"o":"m 778 1100 l 865 1100 q 1070 958 1013 1100 l 1070 894 q 928 768 1031 768 l 904 768 q 809 791 884 768 q 595 688 595 749 q 699 530 699 629 q 580 380 699 428 q 493 364 493 380 q 683 277 553 277 l 722 277 q 968 388 840 277 q 1031 396 987 388 q 1181 230 1158 396 q 817 -31 1181 66 l 690 -39 q 176 285 332 -39 q 98 380 176 357 q 34 515 34 441 q 200 680 34 623 q 524 1036 298 913 q 778 1100 675 1100 z "},"™":{"ha":1274,"x_min":79,"x_max":1186,"o":"m 563 26 q 616 235 616 90 l 616 246 q 336 80 464 80 q 283 87 309 80 q 114 226 134 130 q 94 338 94 322 q 408 513 94 484 q 79 796 79 614 q 80 809 79 802 q 207 1034 92 1001 q 347 1066 322 1066 q 644 707 519 1066 q 949 1055 795 1055 q 1011 1040 980 1055 q 1186 798 1186 962 q 1185 778 1186 788 q 838 532 1175 599 q 1164 403 1154 487 q 1173 302 1173 319 q 1046 89 1173 174 q 964 62 1006 62 q 716 246 852 62 q 720 136 720 186 q 642 -75 720 -75 q 624 -73 633 -75 q 545 -14 545 -51 q 563 26 545 5 z "},"{":{"ha":1274,"x_min":79,"x_max":1186,"o":"m 563 26 q 616 235 616 90 l 616 246 q 336 80 464 80 q 283 87 309 80 q 114 226 134 130 q 94 338 94 322 q 408 513 94 484 q 79 796 79 614 q 80 809 79 802 q 207 1034 92 1001 q 347 1066 322 1066 q 644 707 519 1066 q 949 1055 795 1055 q 1011 1040 980 1055 q 1186 798 1186 962 q 1185 778 1186 788 q 838 532 1175 599 q 1164 403 1154 487 q 1173 302 1173 319 q 1046 89 1173 174 q 964 62 1006 62 q 716 246 852 62 q 720 136 720 186 q 642 -75 720 -75 q 624 -73 633 -75 q 545 -14 545 -51 q 563 26 545 5 z "},"}":{"ha":1274,"x_min":79,"x_max":1186,"o":"m 650 246 l 650 239 q 703 26 650 92 q 721 -14 721 5 q 642 -73 721 -51 q 623 -75 632 -75 q 545 138 545 -75 q 549 246 545 186 q 302 62 414 62 q 220 89 259 62 q 92 303 92 174 q 94 335 92 319 q 428 532 111 487 q 85 693 91 599 q 79 796 79 787 q 255 1040 79 961 q 317 1055 286 1055 q 622 707 470 1055 q 919 1066 747 1066 q 968 1059 943 1066 q 1180 902 1173 1001 q 1186 795 1186 802 q 857 513 1186 614 q 1171 338 1171 484 q 1168 306 1171 322 q 1044 105 1132 130 q 930 80 957 80 q 650 246 802 80 z "},"¥":{"ha":1088,"x_min":34,"x_max":1055,"o":"m 277 527 q 34 910 34 844 l 34 934 q 176 1076 61 1076 l 200 1076 q 422 854 311 1076 q 493 783 472 783 q 762 1084 512 785 q 888 1155 827 1155 l 912 1155 q 1055 1013 1055 1128 l 1055 989 q 944 815 1055 924 q 703 539 789 635 q 868 395 868 513 l 868 371 q 692 229 868 257 q 595 236 673 229 q 580 -7 586 133 q 422 -119 528 -119 q 271 32 307 -119 q 280 208 274 124 q 250 205 265 207 q 37 379 37 229 q 203 522 69 522 q 277 527 241 524 z "},"¡":{"ha":578,"x_min":39,"x_max":530,"o":"m 342 629 q 443 422 443 610 q 414 172 443 321 q 347 -26 402 115 q 181 -159 294 -159 l 171 -159 q 39 -22 39 -110 q 41 3 39 -9 q 97 202 43 12 l 115 295 q 133 509 127 357 l 138 532 q 256 643 147 643 q 280 642 267 643 l 342 629 m 318 1034 q 429 1099 378 1099 q 474 1089 439 1099 q 523 1010 509 1080 q 524 997 524 1003 q 400 928 524 939 q 530 817 530 888 q 527 774 530 814 q 444 712 525 735 q 425 709 435 709 q 307 851 357 709 q 186 714 248 714 q 162 720 174 714 q 93 816 93 751 q 95 857 93 819 q 231 920 97 895 q 98 998 105 939 q 98 1010 98 1004 q 149 1096 98 1062 q 180 1106 164 1106 q 279 1034 225 1106 q 277 1077 277 1057 q 307 1160 277 1160 q 315 1160 311 1160 q 346 1135 346 1151 q 339 1120 346 1128 q 318 1037 318 1095 l 318 1034 z "},"¿":{"ha":1025,"x_min":34,"x_max":991,"o":"m 410 -173 q 50 96 202 -173 q 34 191 34 151 l 34 215 q 406 547 34 434 l 414 618 q 556 728 443 728 l 588 728 q 746 555 724 728 q 390 207 746 315 l 382 191 l 382 183 q 509 136 427 136 q 770 294 626 136 q 857 310 801 310 q 991 168 958 310 l 991 136 q 805 -80 991 14 q 410 -173 618 -173 m 570 1095 q 680 1160 629 1160 q 726 1151 691 1160 q 774 1072 760 1141 q 776 1059 776 1065 q 652 989 776 1000 q 782 877 782 949 q 779 836 782 875 q 696 774 777 796 q 676 771 686 771 q 559 912 608 771 q 438 776 499 776 q 414 781 426 776 q 345 878 345 812 q 347 918 345 881 q 482 981 349 956 q 350 1059 357 1000 q 349 1072 349 1065 q 400 1157 349 1123 q 432 1167 416 1167 q 530 1095 477 1167 q 529 1137 529 1118 q 559 1222 529 1222 q 567 1221 563 1222 q 597 1197 597 1212 q 591 1181 597 1190 q 570 1098 570 1156 l 570 1095 z "},"À":{"ha":1192,"x_min":34,"x_max":1158,"o":"m 588 1013 l 643 1013 q 1086 427 867 1013 q 1158 79 1158 196 l 1158 71 q 999 -71 1158 -50 q 841 79 893 -71 l 825 87 l 699 87 q 334 32 334 68 q 216 -87 315 -68 l 153 -87 q 34 32 54 -67 l 34 95 q 295 720 34 176 q 588 1013 449 1013 m 427 379 q 710 397 559 397 q 767 397 738 397 q 597 677 724 541 q 427 379 503 546 m 659 1031 q 625 1027 641 1027 q 550 1079 575 1027 q 451 1168 458 1155 q 443 1202 443 1185 q 487 1272 443 1239 q 522 1278 505 1278 q 556 1271 540 1278 q 692 1142 663 1202 l 700 1125 q 706 1099 706 1112 q 665 1035 706 1066 l 659 1031 z "},"Á":{"ha":1192,"x_min":34,"x_max":1158,"o":"m 588 1013 l 643 1013 q 1086 427 867 1013 q 1158 79 1158 196 l 1158 71 q 999 -71 1158 -50 q 841 79 893 -71 l 825 87 l 699 87 q 334 32 334 68 q 216 -87 315 -68 l 153 -87 q 34 32 54 -67 l 34 95 q 295 720 34 176 q 588 1013 449 1013 m 427 379 q 710 397 559 397 q 767 397 738 397 q 597 677 724 541 q 427 379 503 546 m 579 1031 l 572 1035 q 531 1099 531 1066 q 537 1125 531 1112 l 546 1142 q 681 1271 574 1202 q 715 1278 697 1278 q 750 1272 732 1278 q 794 1202 794 1239 q 786 1168 794 1185 q 688 1079 780 1155 q 612 1027 663 1027 q 579 1031 597 1027 z "},"Â":{"ha":1192,"x_min":34,"x_max":1158,"o":"m 588 1013 l 643 1013 q 1086 427 867 1013 q 1158 79 1158 196 l 1158 71 q 999 -71 1158 -50 q 841 79 893 -71 l 825 87 l 699 87 q 334 32 334 68 q 216 -87 315 -68 l 153 -87 q 34 32 54 -67 l 34 95 q 295 720 34 176 q 588 1013 449 1013 m 427 379 q 710 397 559 397 q 767 397 738 397 q 597 677 724 541 q 427 379 503 546 m 620 1105 q 581 1052 606 1093 q 525 1025 564 1025 q 480 1031 505 1025 l 473 1035 q 432 1099 432 1066 q 438 1125 432 1112 l 447 1142 q 577 1267 475 1200 l 585 1274 q 620 1280 604 1280 q 654 1273 638 1280 q 790 1144 761 1204 l 798 1127 q 804 1101 804 1114 q 764 1037 804 1068 l 757 1034 q 711 1026 731 1026 q 653 1060 673 1026 q 620 1105 633 1094 z "},"Ã":{"ha":1192,"x_min":34,"x_max":1158,"o":"m 588 1013 l 643 1013 q 1086 427 867 1013 q 1158 79 1158 196 l 1158 71 q 999 -71 1158 -50 q 841 79 893 -71 l 825 87 l 699 87 q 334 32 334 68 q 216 -87 315 -68 l 153 -87 q 34 32 54 -67 l 34 95 q 295 720 34 176 q 588 1013 449 1013 m 427 379 q 710 397 559 397 q 767 397 738 397 q 597 677 724 541 q 427 379 503 546 m 562 1275 l 573 1275 q 692 1192 640 1275 l 696 1192 l 725 1239 q 777 1257 751 1257 q 845 1192 845 1245 l 845 1181 q 758 1036 845 1087 q 722 1025 740 1025 l 689 1025 q 566 1119 640 1025 l 558 1123 q 507 1061 553 1123 q 467 1046 488 1046 l 456 1046 q 391 1112 391 1059 l 391 1123 q 500 1264 391 1177 q 562 1275 535 1275 z "},"Ä":{"ha":1192,"x_min":34,"x_max":1158,"o":"m 588 1013 l 643 1013 q 1086 427 867 1013 q 1158 79 1158 196 l 1158 71 q 999 -71 1158 -50 q 841 79 893 -71 l 825 87 l 699 87 q 334 32 334 68 q 216 -87 315 -68 l 153 -87 q 34 32 54 -67 l 34 95 q 295 720 34 176 q 588 1013 449 1013 m 427 379 q 710 397 559 397 q 767 397 738 397 q 597 677 724 541 q 427 379 503 546 m 481 1249 l 507 1249 q 593 1157 577 1249 l 593 1147 q 522 1055 593 1083 l 471 1055 q 393 1147 393 1078 l 393 1157 q 481 1249 412 1249 m 730 1249 l 756 1249 q 843 1157 827 1249 l 843 1147 q 771 1055 843 1083 l 720 1055 q 643 1147 643 1078 l 643 1157 q 730 1249 662 1249 z "},"Å":{"ha":1192,"x_min":34,"x_max":1158,"o":"m 427 379 q 710 397 559 397 q 767 397 738 397 q 597 677 724 541 q 427 379 503 546 m 608 1154 q 555 1097 566 1154 l 555 1091 q 602 1034 555 1049 l 634 1034 q 678 1091 678 1052 l 678 1097 q 625 1154 668 1154 l 608 1154 m 768 967 q 1086 427 928 849 q 1158 79 1158 196 l 1158 71 q 999 -71 1158 -50 q 841 79 893 -71 l 825 87 l 699 87 q 334 32 334 68 q 216 -87 315 -68 l 153 -87 q 34 32 54 -67 l 34 95 q 295 720 34 176 q 472 964 386 893 q 427 1082 427 1010 l 427 1101 q 595 1278 463 1278 l 643 1278 q 810 1101 779 1278 l 810 1082 q 768 967 810 1014 z "},"Æ":{"ha":1859,"x_min":34,"x_max":1824,"o":"m 427 379 q 710 397 559 397 q 767 397 738 397 q 597 677 724 541 q 427 379 503 546 m 807 87 l 699 87 q 334 32 334 68 q 216 -87 315 -68 l 153 -87 q 34 32 54 -67 l 34 95 q 295 720 34 176 q 588 1013 449 1013 l 643 1013 q 884 840 764 1013 q 1059 973 942 922 q 1411 1057 1250 1057 q 1476 1054 1444 1057 q 1723 914 1662 1033 q 1748 827 1748 866 q 1693 728 1748 768 q 1582 687 1636 687 q 1515 703 1548 687 q 1402 728 1464 728 q 1311 717 1359 728 q 1192 645 1192 688 q 1234 631 1192 631 q 1293 635 1257 631 q 1332 637 1314 637 q 1443 602 1403 637 q 1484 492 1484 564 q 1482 458 1484 476 q 1344 315 1471 361 q 1138 233 1154 272 q 1142 214 1140 223 q 1152 210 1146 210 l 1168 210 q 1643 384 1382 210 q 1683 388 1664 388 q 1821 233 1797 388 q 1824 197 1824 214 q 1593 -36 1824 42 q 1176 -109 1377 -109 q 1103 -106 1139 -109 q 807 87 893 -92 z "},"Ç":{"ha":1065,"x_min":34,"x_max":1031,"o":"m 530 -32 q 477 -28 503 -31 q 155 165 272 -6 q 34 515 38 337 q 358 1036 34 856 q 627 1092 480 1092 q 977 873 873 1072 q 1009 762 1009 810 q 857 633 1009 660 q 722 704 787 633 q 604 775 656 775 q 358 585 427 775 l 351 538 l 351 491 q 524 285 389 285 l 532 285 q 748 352 659 285 q 865 420 838 420 l 888 420 q 1031 277 1031 392 l 1031 254 q 837 29 991 108 q 592 -32 727 -26 l 593 -43 q 665 -106 665 -64 l 665 -111 q 662 -130 665 -119 q 593 -182 633 -182 q 516 -164 552 -182 q 480 -122 480 -146 l 480 -116 q 506 -88 487 -88 q 523 -92 517 -88 q 574 -122 551 -122 q 598 -113 589 -122 l 598 -111 l 596 -109 q 528 -41 528 -87 q 530 -32 528 -36 z "},"È":{"ha":1136,"x_min":34,"x_max":1077,"o":"m 729 1050 q 977 910 915 1029 q 1001 823 1001 862 q 946 724 1001 764 q 836 683 890 683 q 768 699 802 683 q 655 724 718 724 q 564 713 612 724 q 446 641 446 684 q 488 627 446 627 q 546 631 511 627 q 585 633 567 633 q 696 597 656 633 q 737 488 737 560 q 735 454 737 472 q 597 311 724 357 q 390 222 390 264 q 406 206 393 206 l 422 206 q 897 380 635 206 q 937 384 918 384 q 1074 229 1050 384 q 1077 193 1077 210 q 846 -40 1077 38 q 429 -113 630 -113 q 357 -111 393 -113 q 42 127 122 -95 q 34 222 34 170 q 137 451 34 340 q 81 649 81 542 q 312 969 81 867 q 665 1053 503 1053 q 729 1050 697 1053 m 595 1103 q 562 1098 578 1098 q 487 1150 512 1098 q 388 1240 395 1226 q 380 1273 380 1257 q 424 1343 380 1310 q 458 1350 442 1350 q 493 1342 477 1350 q 629 1213 600 1273 l 637 1196 q 643 1170 643 1183 q 602 1106 643 1137 l 595 1103 z "},"É":{"ha":1136,"x_min":34,"x_max":1077,"o":"m 729 1050 q 977 910 915 1029 q 1001 823 1001 862 q 946 724 1001 764 q 836 683 890 683 q 768 699 802 683 q 655 724 718 724 q 564 713 612 724 q 446 641 446 684 q 488 627 446 627 q 546 631 511 627 q 585 633 567 633 q 696 597 656 633 q 737 488 737 560 q 735 454 737 472 q 597 311 724 357 q 390 222 390 264 q 406 206 393 206 l 422 206 q 897 380 635 206 q 937 384 918 384 q 1074 229 1050 384 q 1077 193 1077 210 q 846 -40 1077 38 q 429 -113 630 -113 q 357 -111 393 -113 q 42 127 122 -95 q 34 222 34 170 q 137 451 34 340 q 81 649 81 542 q 312 969 81 867 q 665 1053 503 1053 q 729 1050 697 1053 m 516 1103 l 509 1106 q 468 1170 468 1137 q 474 1196 468 1183 l 483 1213 q 618 1342 511 1273 q 652 1350 634 1350 q 687 1343 669 1350 q 731 1273 731 1310 q 723 1240 731 1257 q 625 1150 717 1226 q 549 1098 600 1098 q 516 1103 534 1098 z "},"Ê":{"ha":1136,"x_min":34,"x_max":1077,"o":"m 729 1050 q 977 910 915 1029 q 1001 823 1001 862 q 946 724 1001 764 q 836 683 890 683 q 768 699 802 683 q 655 724 718 724 q 564 713 612 724 q 446 641 446 684 q 488 627 446 627 q 546 631 511 627 q 585 633 567 633 q 696 597 656 633 q 737 488 737 560 q 735 454 737 472 q 597 311 724 357 q 390 222 390 264 q 406 206 393 206 l 422 206 q 897 380 635 206 q 937 384 918 384 q 1074 229 1050 384 q 1077 193 1077 210 q 846 -40 1077 38 q 429 -113 630 -113 q 357 -111 393 -113 q 42 127 122 -95 q 34 222 34 170 q 137 451 34 340 q 81 649 81 542 q 312 969 81 867 q 665 1053 503 1053 q 729 1050 697 1053 m 557 1176 q 517 1123 543 1164 q 462 1096 500 1096 q 417 1103 442 1096 l 410 1106 q 369 1170 369 1137 q 375 1196 369 1183 l 384 1213 q 514 1339 412 1272 l 522 1345 q 557 1352 541 1352 q 591 1344 575 1352 q 727 1215 698 1275 l 735 1198 q 741 1172 741 1185 q 701 1108 741 1139 l 694 1105 q 648 1097 668 1097 q 590 1131 610 1097 q 557 1176 570 1165 z "},"Ë":{"ha":1136,"x_min":34,"x_max":1077,"o":"m 729 1050 q 977 910 915 1029 q 1001 823 1001 862 q 946 724 1001 764 q 836 683 890 683 q 768 699 802 683 q 655 724 718 724 q 564 713 612 724 q 446 641 446 684 q 488 627 446 627 q 546 631 511 627 q 585 633 567 633 q 696 597 656 633 q 737 488 737 560 q 735 454 737 472 q 597 311 724 357 q 390 222 390 264 q 406 206 393 206 l 422 206 q 897 380 635 206 q 937 384 918 384 q 1074 229 1050 384 q 1077 193 1077 210 q 846 -40 1077 38 q 429 -113 630 -113 q 357 -111 393 -113 q 42 127 122 -95 q 34 222 34 170 q 137 451 34 340 q 81 649 81 542 q 312 969 81 867 q 665 1053 503 1053 q 729 1050 697 1053 m 418 1320 l 444 1320 q 530 1228 514 1320 l 530 1218 q 458 1126 530 1154 l 408 1126 q 330 1218 330 1149 l 330 1228 q 418 1320 349 1320 m 667 1320 l 693 1320 q 780 1228 764 1320 l 780 1218 q 708 1126 780 1154 l 657 1126 q 580 1218 580 1149 l 580 1228 q 667 1320 599 1320 z "},"Ì":{"ha":400,"x_min":24,"x_max":366,"o":"m 200 997 q 366 854 366 981 q 351 602 351 621 l 351 190 q 224 47 351 86 l 169 47 q 42 198 71 47 q 34 388 42 212 q 105 949 34 949 q 200 997 134 997 m 240 1016 q 207 1011 222 1011 q 132 1063 157 1011 q 33 1153 39 1139 q 24 1186 24 1170 q 68 1257 24 1223 q 103 1263 87 1263 q 138 1255 121 1263 q 273 1126 244 1186 l 281 1109 q 288 1083 288 1097 q 247 1019 288 1050 l 240 1016 z "},"Í":{"ha":400,"x_min":34,"x_max":376,"o":"m 200 997 q 366 854 366 981 q 351 602 351 621 l 351 190 q 224 47 351 86 l 169 47 q 42 198 71 47 q 34 388 42 212 q 105 949 34 949 q 200 997 134 997 m 161 1016 l 153 1019 q 113 1083 113 1050 q 119 1109 113 1097 l 127 1126 q 262 1255 156 1186 q 297 1263 279 1263 q 332 1257 313 1263 q 376 1186 376 1223 q 368 1153 376 1170 q 269 1063 361 1139 q 194 1011 244 1011 q 161 1016 178 1011 z "},"Î":{"ha":400,"x_min":14,"x_max":386,"o":"m 200 997 q 366 854 366 981 q 351 602 351 621 l 351 190 q 224 47 351 86 l 169 47 q 42 198 71 47 q 34 388 42 212 q 105 949 34 949 q 200 997 134 997 m 201 1089 q 162 1036 187 1078 q 106 1009 145 1009 q 62 1016 87 1009 l 54 1019 q 14 1083 14 1050 q 20 1109 14 1097 l 28 1126 q 159 1252 56 1185 l 167 1259 q 201 1265 185 1265 q 236 1257 220 1265 q 372 1128 342 1188 l 380 1112 q 386 1085 386 1099 q 345 1021 386 1053 l 338 1018 q 293 1010 313 1010 q 234 1044 254 1010 q 201 1089 214 1078 z "},"Ï":{"ha":400,"x_min":-25,"x_max":425,"o":"m 200 997 q 366 854 366 981 q 351 602 351 621 l 351 190 q 224 47 351 86 l 169 47 q 42 198 71 47 q 34 388 42 212 q 105 949 34 949 q 200 997 134 997 m 62 1234 l 88 1234 q 175 1141 159 1234 l 175 1131 q 103 1039 175 1067 l 52 1039 q -25 1131 -25 1063 l -25 1141 q 62 1234 -6 1234 m 312 1234 l 338 1234 q 425 1141 408 1234 l 425 1131 q 353 1039 425 1067 l 302 1039 q 224 1131 224 1063 l 224 1141 q 312 1234 243 1234 z "},"Ð":{"ha":1316,"x_min":52,"x_max":1262,"o":"m 558 673 l 581 673 q 806 554 769 673 l 806 475 q 699 340 806 366 l 576 363 q 606 256 587 281 l 613 256 q 954 454 954 330 q 613 739 954 657 l 574 739 l 558 715 l 558 673 m 268 320 q 165 300 220 311 l 153 300 q 52 467 64 300 q 193 617 52 600 q 250 630 222 624 l 250 715 q 439 1040 250 969 q 550 1055 499 1055 q 1215 684 984 1055 q 1262 486 1262 583 l 1262 431 q 376 -100 1262 -11 l 368 -100 q 194 66 194 -100 q 281 209 194 130 q 268 320 274 268 z "},"Ñ":{"ha":1133,"x_min":34,"x_max":1099,"o":"m 910 1106 q 1071 792 1036 1068 q 1099 347 1099 558 q 1099 273 1099 309 q 920 -7 1093 28 q 580 245 769 -7 q 358 491 370 491 l 351 491 l 342 475 l 342 119 q 232 -24 342 20 l 153 -24 q 34 119 34 14 l 34 515 q 129 910 34 844 q 232 949 184 949 l 264 949 q 724 543 416 949 q 748 536 739 536 l 755 551 q 718 884 718 760 q 775 1059 718 1036 q 910 1106 808 1106 m 434 1305 l 445 1305 q 564 1221 512 1305 l 568 1221 l 597 1269 q 648 1286 623 1286 q 717 1221 717 1275 l 717 1211 q 630 1065 717 1117 q 593 1055 612 1055 l 561 1055 q 437 1149 511 1055 l 430 1153 q 379 1090 425 1153 q 339 1076 360 1076 l 328 1076 q 263 1142 263 1088 l 263 1153 q 372 1294 263 1206 q 434 1305 407 1305 z "},"Ò":{"ha":1274,"x_min":34,"x_max":1240,"o":"m 637 1027 q 1063 871 886 1027 q 1240 492 1240 714 q 1063 114 1240 271 q 637 -43 886 -43 q 210 114 387 -43 q 34 492 34 271 q 210 871 34 714 q 637 1027 387 1027 m 633 708 q 465 645 534 708 q 396 494 396 583 q 465 343 396 406 q 633 280 534 280 q 800 343 731 280 q 869 494 869 406 q 800 645 869 583 q 633 708 731 708 m 677 1103 q 644 1098 659 1098 q 568 1150 593 1098 q 469 1240 476 1226 q 461 1273 461 1257 q 505 1343 461 1310 q 540 1350 524 1350 q 574 1342 558 1350 q 710 1213 681 1273 l 718 1196 q 724 1170 724 1183 q 684 1106 724 1137 l 677 1103 z "},"Ó":{"ha":1274,"x_min":34,"x_max":1240,"o":"m 637 1027 q 1063 871 886 1027 q 1240 492 1240 714 q 1063 114 1240 271 q 637 -43 886 -43 q 210 114 387 -43 q 34 492 34 271 q 210 871 34 714 q 637 1027 387 1027 m 633 708 q 465 645 534 708 q 396 494 396 583 q 465 343 396 406 q 633 280 534 280 q 800 343 731 280 q 869 494 869 406 q 800 645 869 583 q 633 708 731 708 m 597 1103 l 590 1106 q 549 1170 549 1137 q 555 1196 549 1183 l 564 1213 q 699 1342 593 1273 q 734 1350 715 1350 q 768 1343 750 1350 q 812 1273 812 1310 q 804 1240 812 1257 q 706 1150 798 1226 q 631 1098 681 1098 q 597 1103 615 1098 z "},"Ô":{"ha":1274,"x_min":34,"x_max":1240,"o":"m 637 1027 q 1063 871 886 1027 q 1240 492 1240 714 q 1063 114 1240 271 q 637 -43 886 -43 q 210 114 387 -43 q 34 492 34 271 q 210 871 34 714 q 637 1027 387 1027 m 633 708 q 465 645 534 708 q 396 494 396 583 q 465 343 396 406 q 633 280 534 280 q 800 343 731 280 q 869 494 869 406 q 800 645 869 583 q 633 708 731 708 m 638 1176 q 599 1123 624 1164 q 543 1096 582 1096 q 498 1103 524 1096 l 491 1106 q 450 1170 450 1137 q 456 1196 450 1183 l 465 1213 q 595 1339 493 1272 l 604 1345 q 638 1352 622 1352 q 673 1344 656 1352 q 808 1215 779 1275 l 817 1198 q 823 1172 823 1185 q 782 1108 823 1139 l 775 1105 q 730 1097 749 1097 q 671 1131 691 1097 q 638 1176 651 1165 z "},"Õ":{"ha":1274,"x_min":34,"x_max":1240,"o":"m 637 1027 q 1063 871 886 1027 q 1240 492 1240 714 q 1063 114 1240 271 q 637 -43 886 -43 q 210 114 387 -43 q 34 492 34 271 q 210 871 34 714 q 637 1027 387 1027 m 633 708 q 465 645 534 708 q 396 494 396 583 q 465 343 396 406 q 633 280 534 280 q 800 343 731 280 q 869 494 869 406 q 800 645 869 583 q 633 708 731 708 m 581 1346 l 591 1346 q 711 1263 659 1346 l 715 1263 l 743 1310 q 795 1328 770 1328 q 863 1263 863 1316 l 863 1252 q 777 1107 863 1158 q 740 1096 758 1096 l 707 1096 q 584 1190 658 1096 l 576 1194 q 526 1132 571 1194 q 486 1118 507 1118 l 475 1118 q 410 1183 410 1130 l 410 1194 q 519 1335 410 1248 q 581 1346 553 1346 z "},"Ö":{"ha":1274,"x_min":34,"x_max":1240,"o":"m 637 1027 q 1063 871 886 1027 q 1240 492 1240 714 q 1063 114 1240 271 q 637 -43 886 -43 q 210 114 387 -43 q 34 492 34 271 q 210 871 34 714 q 637 1027 387 1027 m 633 708 q 465 645 534 708 q 396 494 396 583 q 465 343 396 406 q 633 280 534 280 q 800 343 731 280 q 869 494 869 406 q 800 645 869 583 q 633 708 731 708 m 499 1320 l 525 1320 q 612 1228 595 1320 l 612 1218 q 540 1126 612 1154 l 489 1126 q 412 1218 412 1149 l 412 1228 q 499 1320 431 1320 m 749 1320 l 774 1320 q 861 1228 845 1320 l 861 1218 q 789 1126 861 1154 l 739 1126 q 661 1218 661 1149 l 661 1228 q 749 1320 680 1320 z "},"×":{"ha":875,"x_min":94,"x_max":779,"o":"m 197 802 q 298 850 242 850 q 444 786 363 850 q 597 853 534 853 q 667 825 637 853 l 701 793 q 741 701 741 755 q 722 620 741 664 l 656 551 q 653 541 653 548 q 658 517 653 532 l 698 479 q 779 321 779 402 q 775 285 779 303 l 754 251 l 715 211 q 631 172 678 172 q 503 228 574 172 q 451 289 495 235 l 423 282 q 357 202 361 205 q 245 159 296 159 q 156 197 197 159 l 134 219 q 94 305 94 256 q 156 449 94 368 q 216 543 216 512 q 209 562 216 555 q 150 696 150 633 q 197 802 150 753 z "},"Ø":{"ha":1274,"x_min":34,"x_max":1240,"o":"m 654 707 q 633 708 644 708 q 465 645 534 708 q 396 494 396 583 q 424 392 396 438 q 583 610 493 488 q 654 707 621 662 m 562 290 q 633 280 595 280 q 800 343 731 280 q 869 494 869 406 q 812 633 869 574 q 562 290 675 447 m 1015 909 q 1063 871 1040 892 q 1240 492 1240 714 q 1063 114 1240 271 q 637 -43 886 -43 q 363 14 487 -43 q 253 -54 301 -52 l 250 -54 q 195 39 196 -54 l 201 56 q 226 100 210 73 q 210 114 218 107 q 34 492 34 271 q 210 871 34 714 q 637 1027 387 1027 q 871 987 764 1027 q 907 1025 893 1013 q 1005 1099 972 1089 q 1065 1042 1065 1093 q 1056 995 1065 1021 q 1015 909 1044 959 z "},"Ù":{"ha":1207,"x_min":34,"x_max":1173,"o":"m 240 1084 l 287 1084 q 422 941 393 1084 l 422 918 q 351 602 351 691 q 342 498 342 574 q 429 309 342 309 q 659 467 552 309 q 825 997 762 609 q 975 1076 876 1076 q 1126 823 1126 1076 q 1173 103 1126 747 q 1031 -16 1127 -16 l 1007 -16 q 865 111 909 -16 q 841 182 865 182 q 446 -7 623 -7 l 422 -7 q 58 285 164 -7 q 34 491 34 362 l 34 538 q 240 1084 68 1084 m 644 1103 q 610 1098 626 1098 q 535 1150 560 1098 q 436 1240 443 1226 q 428 1273 428 1257 q 472 1343 428 1310 q 507 1350 490 1350 q 541 1342 525 1350 q 677 1213 648 1273 l 685 1196 q 691 1170 691 1183 q 650 1106 691 1137 l 644 1103 z "},"Ú":{"ha":1207,"x_min":34,"x_max":1173,"o":"m 240 1084 l 287 1084 q 422 941 393 1084 l 422 918 q 351 602 351 691 q 342 498 342 574 q 429 309 342 309 q 659 467 552 309 q 825 997 762 609 q 975 1076 876 1076 q 1126 823 1126 1076 q 1173 103 1126 747 q 1031 -16 1127 -16 l 1007 -16 q 865 111 909 -16 q 841 182 865 182 q 446 -7 623 -7 l 422 -7 q 58 285 164 -7 q 34 491 34 362 l 34 538 q 240 1084 68 1084 m 564 1103 l 557 1106 q 516 1170 516 1137 q 522 1196 516 1183 l 531 1213 q 666 1342 559 1273 q 701 1350 682 1350 q 735 1343 717 1350 q 779 1273 779 1310 q 771 1240 779 1257 q 673 1150 765 1226 q 597 1098 648 1098 q 564 1103 582 1098 z "},"Û":{"ha":1207,"x_min":34,"x_max":1173,"o":"m 240 1084 l 287 1084 q 422 941 393 1084 l 422 918 q 351 602 351 691 q 342 498 342 574 q 429 309 342 309 q 659 467 552 309 q 825 997 762 609 q 975 1076 876 1076 q 1126 823 1126 1076 q 1173 103 1126 747 q 1031 -16 1127 -16 l 1007 -16 q 865 111 909 -16 q 841 182 865 182 q 446 -7 623 -7 l 422 -7 q 58 285 164 -7 q 34 491 34 362 l 34 538 q 240 1084 68 1084 m 605 1176 q 566 1123 591 1164 q 510 1096 549 1096 q 465 1103 490 1096 l 458 1106 q 417 1170 417 1137 q 423 1196 417 1183 l 432 1213 q 562 1339 460 1272 l 570 1345 q 605 1352 589 1352 q 640 1344 623 1352 q 775 1215 746 1275 l 783 1198 q 789 1172 789 1185 q 749 1108 789 1139 l 742 1105 q 696 1097 716 1097 q 638 1131 658 1097 q 605 1176 618 1165 z "},"Ü":{"ha":1207,"x_min":34,"x_max":1173,"o":"m 240 1084 l 287 1084 q 422 941 393 1084 l 422 918 q 351 602 351 691 q 342 498 342 574 q 429 309 342 309 q 659 467 552 309 q 825 997 762 609 q 975 1076 876 1076 q 1126 823 1126 1076 q 1173 103 1126 747 q 1031 -16 1127 -16 l 1007 -16 q 865 111 909 -16 q 841 182 865 182 q 446 -7 623 -7 l 422 -7 q 58 285 164 -7 q 34 491 34 362 l 34 538 q 240 1084 68 1084 m 466 1320 l 492 1320 q 578 1228 562 1320 l 578 1218 q 507 1126 578 1154 l 456 1126 q 378 1218 378 1149 l 378 1228 q 466 1320 397 1320 m 715 1320 l 741 1320 q 828 1228 812 1320 l 828 1218 q 756 1126 828 1154 l 705 1126 q 628 1218 628 1149 l 628 1228 q 715 1320 647 1320 z "},"Ý":{"ha":1088,"x_min":34,"x_max":1055,"o":"m 888 1155 l 912 1155 q 1055 1013 1055 1128 l 1055 989 q 944 815 1055 924 q 627 459 703 535 q 580 -7 595 338 q 422 -119 528 -119 q 271 32 307 -119 q 311 483 279 290 q 34 910 34 839 l 34 934 q 176 1076 61 1076 l 200 1076 q 422 854 311 1076 q 493 783 472 783 q 762 1084 512 785 q 888 1155 827 1155 m 441 1091 l 433 1095 q 393 1158 393 1126 q 399 1185 393 1172 l 408 1202 q 543 1331 436 1261 q 577 1338 559 1338 q 612 1332 593 1338 q 656 1261 656 1299 q 648 1228 656 1245 q 549 1139 642 1215 q 474 1086 524 1086 q 441 1091 458 1086 z "},"Þ":{"ha":1166,"x_min":34,"x_max":1132,"o":"m 588 562 q 741 660 741 613 l 741 662 q 595 724 737 710 l 588 562 m 271 703 l 232 695 l 153 695 q 34 830 70 695 l 34 854 q 293 1041 34 989 q 306 1156 305 1145 q 435 1298 343 1298 l 443 1298 l 498 1294 q 615 1154 615 1249 q 614 1143 615 1148 l 610 1076 l 621 1076 q 1122 777 1074 1076 q 1132 661 1132 715 q 966 352 1132 440 q 649 258 787 258 q 604 260 625 258 q 627 -16 627 5 q 477 -167 598 -167 l 461 -167 q 287 118 313 -167 q 264 442 264 332 q 271 692 264 553 l 271 703 z "},"ß":{"ha":1303,"x_min":34,"x_max":1270,"o":"m 852 239 q 909 305 909 273 q 834 378 909 343 q 730 395 798 395 q 676 393 705 395 q 665 392 670 392 q 556 535 566 392 q 555 564 555 550 q 646 722 555 690 q 659 763 659 744 q 643 804 659 785 q 534 830 621 830 q 464 827 503 830 q 454 490 454 769 q 454 328 454 417 l 454 310 q 304 -102 454 -98 l 281 -102 q 94 -59 146 -102 q 34 70 34 -11 q 36 96 34 82 q 130 237 46 195 q 126 465 126 360 q 231 1059 126 991 q 566 1124 385 1124 q 961 995 818 1124 q 1040 824 1040 924 q 987 642 1040 743 q 1270 312 1270 517 q 945 -71 1270 106 q 806 -109 864 -109 q 675 3 707 -109 q 666 62 666 35 q 852 239 666 190 z "},"à":{"ha":1192,"x_min":34,"x_max":1158,"o":"m 588 1013 l 643 1013 q 1086 427 867 1013 q 1158 79 1158 196 l 1158 71 q 999 -71 1158 -50 q 841 79 893 -71 l 825 87 l 699 87 q 334 32 334 68 q 216 -87 315 -68 l 153 -87 q 34 32 54 -67 l 34 95 q 295 720 34 176 q 588 1013 449 1013 m 427 379 q 710 397 559 397 q 767 397 738 397 q 597 677 724 541 q 427 379 503 546 m 659 1031 q 625 1027 641 1027 q 550 1079 575 1027 q 451 1168 458 1155 q 443 1202 443 1185 q 487 1272 443 1239 q 522 1278 505 1278 q 556 1271 540 1278 q 692 1142 663 1202 l 700 1125 q 706 1099 706 1112 q 665 1035 706 1066 l 659 1031 z "},"á":{"ha":1192,"x_min":34,"x_max":1158,"o":"m 588 1013 l 643 1013 q 1086 427 867 1013 q 1158 79 1158 196 l 1158 71 q 999 -71 1158 -50 q 841 79 893 -71 l 825 87 l 699 87 q 334 32 334 68 q 216 -87 315 -68 l 153 -87 q 34 32 54 -67 l 34 95 q 295 720 34 176 q 588 1013 449 1013 m 427 379 q 710 397 559 397 q 767 397 738 397 q 597 677 724 541 q 427 379 503 546 m 579 1031 l 572 1035 q 531 1099 531 1066 q 537 1125 531 1112 l 546 1142 q 681 1271 574 1202 q 715 1278 697 1278 q 750 1272 732 1278 q 794 1202 794 1239 q 786 1168 794 1185 q 688 1079 780 1155 q 612 1027 663 1027 q 579 1031 597 1027 z "},"â":{"ha":1192,"x_min":34,"x_max":1158,"o":"m 588 1013 l 643 1013 q 1086 427 867 1013 q 1158 79 1158 196 l 1158 71 q 999 -71 1158 -50 q 841 79 893 -71 l 825 87 l 699 87 q 334 32 334 68 q 216 -87 315 -68 l 153 -87 q 34 32 54 -67 l 34 95 q 295 720 34 176 q 588 1013 449 1013 m 427 379 q 710 397 559 397 q 767 397 738 397 q 597 677 724 541 q 427 379 503 546 m 620 1105 q 581 1052 606 1093 q 525 1025 564 1025 q 480 1031 505 1025 l 473 1035 q 432 1099 432 1066 q 438 1125 432 1112 l 447 1142 q 577 1267 475 1200 l 585 1274 q 620 1280 604 1280 q 654 1273 638 1280 q 790 1144 761 1204 l 798 1127 q 804 1101 804 1114 q 764 1037 804 1068 l 757 1034 q 711 1026 731 1026 q 653 1060 673 1026 q 620 1105 633 1094 z "},"ã":{"ha":1192,"x_min":34,"x_max":1158,"o":"m 588 1013 l 643 1013 q 1086 427 867 1013 q 1158 79 1158 196 l 1158 71 q 999 -71 1158 -50 q 841 79 893 -71 l 825 87 l 699 87 q 334 32 334 68 q 216 -87 315 -68 l 153 -87 q 34 32 54 -67 l 34 95 q 295 720 34 176 q 588 1013 449 1013 m 427 379 q 710 397 559 397 q 767 397 738 397 q 597 677 724 541 q 427 379 503 546 m 562 1275 l 573 1275 q 692 1192 640 1275 l 696 1192 l 725 1239 q 777 1257 751 1257 q 845 1192 845 1245 l 845 1181 q 758 1036 845 1087 q 722 1025 740 1025 l 689 1025 q 566 1119 640 1025 l 558 1123 q 507 1061 553 1123 q 467 1046 488 1046 l 456 1046 q 391 1112 391 1059 l 391 1123 q 500 1264 391 1177 q 562 1275 535 1275 z "},"ä":{"ha":1192,"x_min":34,"x_max":1158,"o":"m 588 1013 l 643 1013 q 1086 427 867 1013 q 1158 79 1158 196 l 1158 71 q 999 -71 1158 -50 q 841 79 893 -71 l 825 87 l 699 87 q 334 32 334 68 q 216 -87 315 -68 l 153 -87 q 34 32 54 -67 l 34 95 q 295 720 34 176 q 588 1013 449 1013 m 427 379 q 710 397 559 397 q 767 397 738 397 q 597 677 724 541 q 427 379 503 546 m 481 1249 l 507 1249 q 593 1157 577 1249 l 593 1147 q 522 1055 593 1083 l 471 1055 q 393 1147 393 1078 l 393 1157 q 481 1249 412 1249 m 730 1249 l 756 1249 q 843 1157 827 1249 l 843 1147 q 771 1055 843 1083 l 720 1055 q 643 1147 643 1078 l 643 1157 q 730 1249 662 1249 z "},"å":{"ha":1192,"x_min":34,"x_max":1158,"o":"m 427 379 q 710 397 559 397 q 767 397 738 397 q 597 677 724 541 q 427 379 503 546 m 608 1154 q 555 1097 566 1154 l 555 1091 q 602 1034 555 1049 l 634 1034 q 678 1091 678 1052 l 678 1097 q 625 1154 668 1154 l 608 1154 m 768 967 q 1086 427 928 849 q 1158 79 1158 196 l 1158 71 q 999 -71 1158 -50 q 841 79 893 -71 l 825 87 l 699 87 q 334 32 334 68 q 216 -87 315 -68 l 153 -87 q 34 32 54 -67 l 34 95 q 295 720 34 176 q 472 964 386 893 q 427 1082 427 1010 l 427 1101 q 595 1278 463 1278 l 643 1278 q 810 1101 779 1278 l 810 1082 q 768 967 810 1014 z "},"æ":{"ha":1859,"x_min":34,"x_max":1824,"o":"m 427 379 q 710 397 559 397 q 767 397 738 397 q 597 677 724 541 q 427 379 503 546 m 807 87 l 699 87 q 334 32 334 68 q 216 -87 315 -68 l 153 -87 q 34 32 54 -67 l 34 95 q 295 720 34 176 q 588 1013 449 1013 l 643 1013 q 884 840 764 1013 q 1059 973 942 922 q 1411 1057 1250 1057 q 1476 1054 1444 1057 q 1723 914 1662 1033 q 1748 827 1748 866 q 1693 728 1748 768 q 1582 687 1636 687 q 1515 703 1548 687 q 1402 728 1464 728 q 1311 717 1359 728 q 1192 645 1192 688 q 1234 631 1192 631 q 1293 635 1257 631 q 1332 637 1314 637 q 1443 602 1403 637 q 1484 492 1484 564 q 1482 458 1484 476 q 1344 315 1471 361 q 1138 233 1154 272 q 1142 214 1140 223 q 1152 210 1146 210 l 1168 210 q 1643 384 1382 210 q 1683 388 1664 388 q 1821 233 1797 388 q 1824 197 1824 214 q 1593 -36 1824 42 q 1176 -109 1377 -109 q 1103 -106 1139 -109 q 807 87 893 -92 z "},"ç":{"ha":1065,"x_min":34,"x_max":1031,"o":"m 530 -32 q 477 -28 503 -31 q 155 165 272 -6 q 34 515 38 337 q 358 1036 34 856 q 627 1092 480 1092 q 977 873 873 1072 q 1009 762 1009 810 q 857 633 1009 660 q 722 704 787 633 q 604 775 656 775 q 358 585 427 775 l 351 538 l 351 491 q 524 285 389 285 l 532 285 q 748 352 659 285 q 865 420 838 420 l 888 420 q 1031 277 1031 392 l 1031 254 q 837 29 991 108 q 592 -32 727 -26 l 593 -43 q 665 -106 665 -64 l 665 -111 q 662 -130 665 -119 q 593 -182 633 -182 q 516 -164 552 -182 q 480 -122 480 -146 l 480 -116 q 506 -88 487 -88 q 523 -92 517 -88 q 574 -122 551 -122 q 598 -113 589 -122 l 598 -111 l 596 -109 q 528 -41 528 -87 q 530 -32 528 -36 z "},"è":{"ha":1136,"x_min":34,"x_max":1077,"o":"m 729 1050 q 977 910 915 1029 q 1001 823 1001 862 q 946 724 1001 764 q 836 683 890 683 q 768 699 802 683 q 655 724 718 724 q 564 713 612 724 q 446 641 446 684 q 488 627 446 627 q 546 631 511 627 q 585 633 567 633 q 696 597 656 633 q 737 488 737 560 q 735 454 737 472 q 597 311 724 357 q 390 222 390 264 q 406 206 393 206 l 422 206 q 897 380 635 206 q 937 384 918 384 q 1074 229 1050 384 q 1077 193 1077 210 q 846 -40 1077 38 q 429 -113 630 -113 q 357 -111 393 -113 q 42 127 122 -95 q 34 222 34 170 q 137 451 34 340 q 81 649 81 542 q 312 969 81 867 q 665 1053 503 1053 q 729 1050 697 1053 m 595 1103 q 562 1098 578 1098 q 487 1150 512 1098 q 388 1240 395 1226 q 380 1273 380 1257 q 424 1343 380 1310 q 458 1350 442 1350 q 493 1342 477 1350 q 629 1213 600 1273 l 637 1196 q 643 1170 643 1183 q 602 1106 643 1137 l 595 1103 z "},"é":{"ha":1136,"x_min":34,"x_max":1077,"o":"m 729 1050 q 977 910 915 1029 q 1001 823 1001 862 q 946 724 1001 764 q 836 683 890 683 q 768 699 802 683 q 655 724 718 724 q 564 713 612 724 q 446 641 446 684 q 488 627 446 627 q 546 631 511 627 q 585 633 567 633 q 696 597 656 633 q 737 488 737 560 q 735 454 737 472 q 597 311 724 357 q 390 222 390 264 q 406 206 393 206 l 422 206 q 897 380 635 206 q 937 384 918 384 q 1074 229 1050 384 q 1077 193 1077 210 q 846 -40 1077 38 q 429 -113 630 -113 q 357 -111 393 -113 q 42 127 122 -95 q 34 222 34 170 q 137 451 34 340 q 81 649 81 542 q 312 969 81 867 q 665 1053 503 1053 q 729 1050 697 1053 m 516 1103 l 509 1106 q 468 1170 468 1137 q 474 1196 468 1183 l 483 1213 q 618 1342 511 1273 q 652 1350 634 1350 q 687 1343 669 1350 q 731 1273 731 1310 q 723 1240 731 1257 q 625 1150 717 1226 q 549 1098 600 1098 q 516 1103 534 1098 z "},"ê":{"ha":1136,"x_min":34,"x_max":1077,"o":"m 729 1050 q 977 910 915 1029 q 1001 823 1001 862 q 946 724 1001 764 q 836 683 890 683 q 768 699 802 683 q 655 724 718 724 q 564 713 612 724 q 446 641 446 684 q 488 627 446 627 q 546 631 511 627 q 585 633 567 633 q 696 597 656 633 q 737 488 737 560 q 735 454 737 472 q 597 311 724 357 q 390 222 390 264 q 406 206 393 206 l 422 206 q 897 380 635 206 q 937 384 918 384 q 1074 229 1050 384 q 1077 193 1077 210 q 846 -40 1077 38 q 429 -113 630 -113 q 357 -111 393 -113 q 42 127 122 -95 q 34 222 34 170 q 137 451 34 340 q 81 649 81 542 q 312 969 81 867 q 665 1053 503 1053 q 729 1050 697 1053 m 557 1176 q 517 1123 543 1164 q 462 1096 500 1096 q 417 1103 442 1096 l 410 1106 q 369 1170 369 1137 q 375 1196 369 1183 l 384 1213 q 514 1339 412 1272 l 522 1345 q 557 1352 541 1352 q 591 1344 575 1352 q 727 1215 698 1275 l 735 1198 q 741 1172 741 1185 q 701 1108 741 1139 l 694 1105 q 648 1097 668 1097 q 590 1131 610 1097 q 557 1176 570 1165 z "},"ë":{"ha":1136,"x_min":34,"x_max":1077,"o":"m 729 1050 q 977 910 915 1029 q 1001 823 1001 862 q 946 724 1001 764 q 836 683 890 683 q 768 699 802 683 q 655 724 718 724 q 564 713 612 724 q 446 641 446 684 q 488 627 446 627 q 546 631 511 627 q 585 633 567 633 q 696 597 656 633 q 737 488 737 560 q 735 454 737 472 q 597 311 724 357 q 390 222 390 264 q 406 206 393 206 l 422 206 q 897 380 635 206 q 937 384 918 384 q 1074 229 1050 384 q 1077 193 1077 210 q 846 -40 1077 38 q 429 -113 630 -113 q 357 -111 393 -113 q 42 127 122 -95 q 34 222 34 170 q 137 451 34 340 q 81 649 81 542 q 312 969 81 867 q 665 1053 503 1053 q 729 1050 697 1053 m 418 1320 l 444 1320 q 530 1228 514 1320 l 530 1218 q 458 1126 530 1154 l 408 1126 q 330 1218 330 1149 l 330 1228 q 418 1320 349 1320 m 667 1320 l 693 1320 q 780 1228 764 1320 l 780 1218 q 708 1126 780 1154 l 657 1126 q 580 1218 580 1149 l 580 1228 q 667 1320 599 1320 z "},"ì":{"ha":400,"x_min":24,"x_max":366,"o":"m 200 997 q 366 854 366 981 q 351 602 351 621 l 351 190 q 224 47 351 86 l 169 47 q 42 198 71 47 q 34 388 42 212 q 105 949 34 949 q 200 997 134 997 m 240 1016 q 207 1011 222 1011 q 132 1063 157 1011 q 33 1153 39 1139 q 24 1186 24 1170 q 68 1257 24 1223 q 103 1263 87 1263 q 138 1255 121 1263 q 273 1126 244 1186 l 281 1109 q 288 1083 288 1097 q 247 1019 288 1050 l 240 1016 z "},"í":{"ha":400,"x_min":34,"x_max":376,"o":"m 200 997 q 366 854 366 981 q 351 602 351 621 l 351 190 q 224 47 351 86 l 169 47 q 42 198 71 47 q 34 388 42 212 q 105 949 34 949 q 200 997 134 997 m 161 1016 l 153 1019 q 113 1083 113 1050 q 119 1109 113 1097 l 127 1126 q 262 1255 156 1186 q 297 1263 279 1263 q 332 1257 313 1263 q 376 1186 376 1223 q 368 1153 376 1170 q 269 1063 361 1139 q 194 1011 244 1011 q 161 1016 178 1011 z "},"î":{"ha":400,"x_min":14,"x_max":386,"o":"m 200 997 q 366 854 366 981 q 351 602 351 621 l 351 190 q 224 47 351 86 l 169 47 q 42 198 71 47 q 34 388 42 212 q 105 949 34 949 q 200 997 134 997 m 201 1089 q 162 1036 187 1078 q 106 1009 145 1009 q 62 1016 87 1009 l 54 1019 q 14 1083 14 1050 q 20 1109 14 1097 l 28 1126 q 159 1252 56 1185 l 167 1259 q 201 1265 185 1265 q 236 1257 220 1265 q 372 1128 342 1188 l 380 1112 q 386 1085 386 1099 q 345 1021 386 1053 l 338 1018 q 293 1010 313 1010 q 234 1044 254 1010 q 201 1089 214 1078 z "},"ï":{"ha":400,"x_min":-25,"x_max":425,"o":"m 200 997 q 366 854 366 981 q 351 602 351 621 l 351 190 q 224 47 351 86 l 169 47 q 42 198 71 47 q 34 388 42 212 q 105 949 34 949 q 200 997 134 997 m 62 1234 l 88 1234 q 175 1141 159 1234 l 175 1131 q 103 1039 175 1067 l 52 1039 q -25 1131 -25 1063 l -25 1141 q 62 1234 -6 1234 m 312 1234 l 338 1234 q 425 1141 408 1234 l 425 1131 q 353 1039 425 1067 l 302 1039 q 224 1131 224 1063 l 224 1141 q 312 1234 243 1234 z "},"ð":{"ha":1274,"x_min":34,"x_max":1240,"o":"m 633 616 q 465 562 534 616 q 396 429 396 507 q 465 296 396 351 q 633 241 534 241 q 800 296 731 241 q 869 429 869 351 q 800 562 869 507 q 633 616 731 616 m 1240 427 q 1063 95 1240 233 q 637 -43 886 -43 q 210 95 387 -43 q 34 427 34 233 q 210 760 34 622 q 637 897 387 897 q 836 872 743 897 q 801 964 823 932 l 781 968 q 709 941 713 943 q 677 939 692 939 q 575 999 598 939 l 567 1019 q 562 1046 562 1033 q 661 1145 562 1103 q 734 1190 734 1168 q 734 1195 734 1192 q 728 1239 728 1219 q 808 1337 728 1314 q 848 1344 829 1344 q 966 1255 920 1344 q 1023 1259 998 1259 q 1126 1211 1107 1259 l 1138 1181 q 1144 1153 1144 1166 q 1093 1075 1144 1112 l 1027 1055 q 1016 1034 1019 1052 l 1029 1000 q 1240 427 1240 585 z "},"ñ":{"ha":1133,"x_min":34,"x_max":1099,"o":"m 910 1106 q 1071 792 1036 1068 q 1099 347 1099 558 q 1099 273 1099 309 q 920 -7 1093 28 q 580 245 769 -7 q 358 491 370 491 l 351 491 l 342 475 l 342 119 q 232 -24 342 20 l 153 -24 q 34 119 34 14 l 34 515 q 129 910 34 844 q 232 949 184 949 l 264 949 q 724 543 416 949 q 748 536 739 536 l 755 551 q 718 884 718 760 q 775 1059 718 1036 q 910 1106 808 1106 m 434 1305 l 445 1305 q 564 1221 512 1305 l 568 1221 l 597 1269 q 648 1286 623 1286 q 717 1221 717 1275 l 717 1211 q 630 1065 717 1117 q 593 1055 612 1055 l 561 1055 q 437 1149 511 1055 l 430 1153 q 379 1090 425 1153 q 339 1076 360 1076 l 328 1076 q 263 1142 263 1088 l 263 1153 q 372 1294 263 1206 q 434 1305 407 1305 z "},"ò":{"ha":1274,"x_min":34,"x_max":1240,"o":"m 637 1027 q 1063 871 886 1027 q 1240 492 1240 714 q 1063 114 1240 271 q 637 -43 886 -43 q 210 114 387 -43 q 34 492 34 271 q 210 871 34 714 q 637 1027 387 1027 m 633 708 q 465 645 534 708 q 396 494 396 583 q 465 343 396 406 q 633 280 534 280 q 800 343 731 280 q 869 494 869 406 q 800 645 869 583 q 633 708 731 708 m 677 1103 q 644 1098 659 1098 q 568 1150 593 1098 q 469 1240 476 1226 q 461 1273 461 1257 q 505 1343 461 1310 q 540 1350 524 1350 q 574 1342 558 1350 q 710 1213 681 1273 l 718 1196 q 724 1170 724 1183 q 684 1106 724 1137 l 677 1103 z "},"ó":{"ha":1274,"x_min":34,"x_max":1240,"o":"m 637 1027 q 1063 871 886 1027 q 1240 492 1240 714 q 1063 114 1240 271 q 637 -43 886 -43 q 210 114 387 -43 q 34 492 34 271 q 210 871 34 714 q 637 1027 387 1027 m 633 708 q 465 645 534 708 q 396 494 396 583 q 465 343 396 406 q 633 280 534 280 q 800 343 731 280 q 869 494 869 406 q 800 645 869 583 q 633 708 731 708 m 597 1103 l 590 1106 q 549 1170 549 1137 q 555 1196 549 1183 l 564 1213 q 699 1342 593 1273 q 734 1350 715 1350 q 768 1343 750 1350 q 812 1273 812 1310 q 804 1240 812 1257 q 706 1150 798 1226 q 631 1098 681 1098 q 597 1103 615 1098 z "},"ô":{"ha":1274,"x_min":34,"x_max":1240,"o":"m 637 1027 q 1063 871 886 1027 q 1240 492 1240 714 q 1063 114 1240 271 q 637 -43 886 -43 q 210 114 387 -43 q 34 492 34 271 q 210 871 34 714 q 637 1027 387 1027 m 633 708 q 465 645 534 708 q 396 494 396 583 q 465 343 396 406 q 633 280 534 280 q 800 343 731 280 q 869 494 869 406 q 800 645 869 583 q 633 708 731 708 m 638 1176 q 599 1123 624 1164 q 543 1096 582 1096 q 498 1103 524 1096 l 491 1106 q 450 1170 450 1137 q 456 1196 450 1183 l 465 1213 q 595 1339 493 1272 l 604 1345 q 638 1352 622 1352 q 673 1344 656 1352 q 808 1215 779 1275 l 817 1198 q 823 1172 823 1185 q 782 1108 823 1139 l 775 1105 q 730 1097 749 1097 q 671 1131 691 1097 q 638 1176 651 1165 z "},"õ":{"ha":1274,"x_min":34,"x_max":1240,"o":"m 637 1027 q 1063 871 886 1027 q 1240 492 1240 714 q 1063 114 1240 271 q 637 -43 886 -43 q 210 114 387 -43 q 34 492 34 271 q 210 871 34 714 q 637 1027 387 1027 m 633 708 q 465 645 534 708 q 396 494 396 583 q 465 343 396 406 q 633 280 534 280 q 800 343 731 280 q 869 494 869 406 q 800 645 869 583 q 633 708 731 708 m 581 1346 l 591 1346 q 711 1263 659 1346 l 715 1263 l 743 1310 q 795 1328 770 1328 q 863 1263 863 1316 l 863 1252 q 777 1107 863 1158 q 740 1096 758 1096 l 707 1096 q 584 1190 658 1096 l 576 1194 q 526 1132 571 1194 q 486 1118 507 1118 l 475 1118 q 410 1183 410 1130 l 410 1194 q 519 1335 410 1248 q 581 1346 553 1346 z "},"ö":{"ha":1274,"x_min":34,"x_max":1240,"o":"m 637 1027 q 1063 871 886 1027 q 1240 492 1240 714 q 1063 114 1240 271 q 637 -43 886 -43 q 210 114 387 -43 q 34 492 34 271 q 210 871 34 714 q 637 1027 387 1027 m 633 708 q 465 645 534 708 q 396 494 396 583 q 465 343 396 406 q 633 280 534 280 q 800 343 731 280 q 869 494 869 406 q 800 645 869 583 q 633 708 731 708 m 499 1320 l 525 1320 q 612 1228 595 1320 l 612 1218 q 540 1126 612 1154 l 489 1126 q 412 1218 412 1149 l 412 1228 q 499 1320 431 1320 m 749 1320 l 774 1320 q 861 1228 845 1320 l 861 1218 q 789 1126 861 1154 l 739 1126 q 661 1218 661 1149 l 661 1228 q 749 1320 680 1320 z "},"÷":{"ha":780,"x_min":34,"x_max":746,"o":"m 532 720 l 548 720 q 746 570 746 710 l 746 546 q 595 404 746 432 q 509 412 578 404 q 216 380 376 404 q 34 554 34 404 q 176 696 61 696 q 532 720 439 720 m 379 347 l 418 347 q 553 204 528 347 l 553 189 q 442 46 553 90 l 363 46 q 244 189 244 83 l 244 204 q 379 347 273 347 m 368 1067 l 408 1067 q 542 924 517 1067 l 542 909 q 431 766 542 810 l 352 766 q 233 909 233 803 l 233 924 q 368 1067 262 1067 z "},"ø":{"ha":1274,"x_min":34,"x_max":1240,"o":"m 654 707 q 633 708 644 708 q 465 645 534 708 q 396 494 396 583 q 424 392 396 438 q 583 610 493 488 q 654 707 621 662 m 562 290 q 633 280 595 280 q 800 343 731 280 q 869 494 869 406 q 812 633 869 574 q 562 290 675 447 m 1015 909 q 1063 871 1040 892 q 1240 492 1240 714 q 1063 114 1240 271 q 637 -43 886 -43 q 363 14 487 -43 q 253 -54 301 -52 l 250 -54 q 195 39 196 -54 l 201 56 q 226 100 210 73 q 210 114 218 107 q 34 492 34 271 q 210 871 34 714 q 637 1027 387 1027 q 871 987 764 1027 q 907 1025 893 1013 q 1005 1099 972 1089 q 1065 1042 1065 1093 q 1056 995 1065 1021 q 1015 909 1044 959 z "},"ù":{"ha":1207,"x_min":34,"x_max":1173,"o":"m 240 1084 l 287 1084 q 422 941 393 1084 l 422 918 q 351 602 351 691 q 342 498 342 574 q 429 309 342 309 q 659 467 552 309 q 825 997 762 609 q 975 1076 876 1076 q 1126 823 1126 1076 q 1173 103 1126 747 q 1031 -16 1127 -16 l 1007 -16 q 865 111 909 -16 q 841 182 865 182 q 446 -7 623 -7 l 422 -7 q 58 285 164 -7 q 34 491 34 362 l 34 538 q 240 1084 68 1084 m 644 1103 q 610 1098 626 1098 q 535 1150 560 1098 q 436 1240 443 1226 q 428 1273 428 1257 q 472 1343 428 1310 q 507 1350 490 1350 q 541 1342 525 1350 q 677 1213 648 1273 l 685 1196 q 691 1170 691 1183 q 650 1106 691 1137 l 644 1103 z "},"ú":{"ha":1207,"x_min":34,"x_max":1173,"o":"m 240 1084 l 287 1084 q 422 941 393 1084 l 422 918 q 351 602 351 691 q 342 498 342 574 q 429 309 342 309 q 659 467 552 309 q 825 997 762 609 q 975 1076 876 1076 q 1126 823 1126 1076 q 1173 103 1126 747 q 1031 -16 1127 -16 l 1007 -16 q 865 111 909 -16 q 841 182 865 182 q 446 -7 623 -7 l 422 -7 q 58 285 164 -7 q 34 491 34 362 l 34 538 q 240 1084 68 1084 m 564 1103 l 557 1106 q 516 1170 516 1137 q 522 1196 516 1183 l 531 1213 q 666 1342 559 1273 q 701 1350 682 1350 q 735 1343 717 1350 q 779 1273 779 1310 q 771 1240 779 1257 q 673 1150 765 1226 q 597 1098 648 1098 q 564 1103 582 1098 z "},"û":{"ha":1207,"x_min":34,"x_max":1173,"o":"m 240 1084 l 287 1084 q 422 941 393 1084 l 422 918 q 351 602 351 691 q 342 498 342 574 q 429 309 342 309 q 659 467 552 309 q 825 997 762 609 q 975 1076 876 1076 q 1126 823 1126 1076 q 1173 103 1126 747 q 1031 -16 1127 -16 l 1007 -16 q 865 111 909 -16 q 841 182 865 182 q 446 -7 623 -7 l 422 -7 q 58 285 164 -7 q 34 491 34 362 l 34 538 q 240 1084 68 1084 m 605 1176 q 566 1123 591 1164 q 510 1096 549 1096 q 465 1103 490 1096 l 458 1106 q 417 1170 417 1137 q 423 1196 417 1183 l 432 1213 q 562 1339 460 1272 l 570 1345 q 605 1352 589 1352 q 640 1344 623 1352 q 775 1215 746 1275 l 783 1198 q 789 1172 789 1185 q 749 1108 789 1139 l 742 1105 q 696 1097 716 1097 q 638 1131 658 1097 q 605 1176 618 1165 z "},"ü":{"ha":1207,"x_min":34,"x_max":1173,"o":"m 240 1084 l 287 1084 q 422 941 393 1084 l 422 918 q 351 602 351 691 q 342 498 342 574 q 429 309 342 309 q 659 467 552 309 q 825 997 762 609 q 975 1076 876 1076 q 1126 823 1126 1076 q 1173 103 1126 747 q 1031 -16 1127 -16 l 1007 -16 q 865 111 909 -16 q 841 182 865 182 q 446 -7 623 -7 l 422 -7 q 58 285 164 -7 q 34 491 34 362 l 34 538 q 240 1084 68 1084 m 466 1320 l 492 1320 q 578 1228 562 1320 l 578 1218 q 507 1126 578 1154 l 456 1126 q 378 1218 378 1149 l 378 1228 q 466 1320 397 1320 m 715 1320 l 741 1320 q 828 1228 812 1320 l 828 1218 q 756 1126 828 1154 l 705 1126 q 628 1218 628 1149 l 628 1228 q 715 1320 647 1320 z "},"ý":{"ha":1088,"x_min":34,"x_max":1055,"o":"m 888 1155 l 912 1155 q 1055 1013 1055 1128 l 1055 989 q 944 815 1055 924 q 627 459 703 535 q 580 -7 595 338 q 422 -119 528 -119 q 271 32 307 -119 q 311 483 279 290 q 34 910 34 839 l 34 934 q 176 1076 61 1076 l 200 1076 q 422 854 311 1076 q 493 783 472 783 q 762 1084 512 785 q 888 1155 827 1155 m 441 1091 l 433 1095 q 393 1158 393 1126 q 399 1185 393 1172 l 408 1202 q 543 1331 436 1261 q 577 1338 559 1338 q 612 1332 593 1338 q 656 1261 656 1299 q 648 1228 656 1245 q 549 1139 642 1215 q 474 1086 524 1086 q 441 1091 458 1086 z "},"þ":{"ha":1166,"x_min":34,"x_max":1132,"o":"m 588 562 q 741 660 741 613 l 741 662 q 595 724 737 710 l 588 562 m 271 703 l 232 695 l 153 695 q 34 830 70 695 l 34 854 q 293 1041 34 989 q 306 1156 305 1145 q 435 1298 343 1298 l 443 1298 l 498 1294 q 615 1154 615 1249 q 614 1143 615 1148 l 610 1076 l 621 1076 q 1122 777 1074 1076 q 1132 661 1132 715 q 966 352 1132 440 q 649 258 787 258 q 604 260 625 258 q 627 -16 627 5 q 477 -167 598 -167 l 461 -167 q 287 118 313 -167 q 264 442 264 332 q 271 692 264 553 l 271 703 z "},"ÿ":{"ha":1088,"x_min":34,"x_max":1055,"o":"m 888 1155 l 912 1155 q 1055 1013 1055 1128 l 1055 989 q 944 815 1055 924 q 627 459 703 535 q 580 -7 595 338 q 422 -119 528 -119 q 271 32 307 -119 q 311 483 279 290 q 34 910 34 839 l 34 934 q 176 1076 61 1076 l 200 1076 q 422 854 311 1076 q 493 783 472 783 q 762 1084 512 785 q 888 1155 827 1155 m 364 1322 l 390 1322 q 477 1230 460 1322 l 477 1220 q 405 1128 477 1156 l 354 1128 q 277 1220 277 1152 l 277 1230 q 364 1322 296 1322 m 614 1322 l 640 1322 q 726 1230 710 1322 l 726 1220 q 654 1128 726 1156 l 604 1128 q 526 1220 526 1152 l 526 1230 q 614 1322 545 1322 z "},"̀":{"ha":372,"x_min":45,"x_max":308,"o":"m 260 1103 q 227 1098 243 1098 q 152 1150 177 1098 q 53 1240 60 1226 q 45 1273 45 1257 q 89 1343 45 1310 q 123 1350 107 1350 q 158 1342 142 1350 q 294 1213 264 1273 l 302 1196 q 308 1170 308 1183 q 267 1106 308 1137 l 260 1103 z "},"́":{"ha":372,"x_min":45,"x_max":308,"o":"m 93 1103 l 85 1106 q 45 1170 45 1137 q 51 1196 45 1183 l 60 1213 q 195 1342 88 1273 q 229 1350 211 1350 q 264 1343 245 1350 q 308 1273 308 1310 q 300 1240 308 1257 q 201 1150 294 1226 q 126 1098 176 1098 q 93 1103 111 1098 z "},"̂":{"ha":469,"x_min":45,"x_max":417,"o":"m 233 1176 q 193 1123 218 1164 q 138 1096 176 1096 q 93 1103 118 1096 l 85 1106 q 45 1170 45 1137 q 51 1196 45 1183 l 60 1213 q 190 1339 87 1272 l 198 1345 q 233 1352 216 1352 q 267 1344 251 1352 q 403 1215 374 1275 l 411 1198 q 417 1172 417 1185 q 376 1108 417 1139 l 370 1105 q 324 1097 344 1097 q 266 1131 286 1097 q 233 1176 245 1165 z "},"̃":{"ha":562,"x_min":54,"x_max":507,"o":"m 224 1346 l 235 1346 q 355 1263 302 1346 l 359 1263 l 387 1310 q 439 1328 414 1328 q 507 1263 507 1316 l 507 1252 q 420 1107 507 1158 q 384 1096 402 1096 l 351 1096 q 228 1190 302 1096 l 220 1194 q 170 1132 215 1194 q 130 1118 151 1118 l 119 1118 q 54 1183 54 1130 l 54 1194 q 163 1335 54 1248 q 224 1346 197 1346 z "},"̈":{"ha":580,"x_min":60,"x_max":510,"o":"m 148 1320 l 174 1320 q 260 1228 244 1320 l 260 1218 q 189 1126 260 1154 l 138 1126 q 60 1218 60 1149 l 60 1228 q 148 1320 79 1320 m 397 1320 l 423 1320 q 510 1228 494 1320 l 510 1218 q 438 1126 510 1154 l 387 1126 q 310 1218 310 1149 l 310 1228 q 397 1320 329 1320 z "},"̊":{"ha":497,"x_min":56,"x_max":439,"o":"m 224 1349 l 272 1349 q 439 1173 408 1349 l 439 1153 q 302 977 439 1030 l 203 977 q 56 1153 56 1022 l 56 1173 q 224 1349 92 1349 m 237 1225 q 184 1168 195 1225 l 184 1162 q 231 1105 184 1120 l 263 1105 q 307 1162 307 1123 l 307 1168 q 254 1225 297 1225 l 237 1225 z "}}}
